<svg width="46" height="46" xmlns="http://www.w3.org/2000/svg" xmlns:xlink="http://www.w3.org/1999/xlink"><defs><path id="a" d="M0 .057h36.466v30.87H0z"/></defs><g fill="none" fill-rule="evenodd"><path d="M36.09 35.707c.002 1.15.495 2.87 1.034 2.583.897-.475 2.84-1.552 2.51-2.59-.295-.927-1.144-.528-1.674-.004-.175-.37-.241-1.117-.801-1.211-.578-.159-1.07.755-1.07 1.222m-23.081 1.617c-1.006-1.122-1.725-.094-2.012.514-.096-.655-.335-1.075-1.054-1.262-.718-.234-1.39.28-1.533.935-.193.781 1.366 2.478 1.629 2.85.527.749.738.907 1.15.422.741-.876 2.81-2.355 1.82-3.46" fill="#F75973"/><path d="M38.405 36.644c-.234.29-.57.472-.914.61-.06.024-.195.11-.122.187.072.076.225.042.307.008.443-.177.862-.42 1.161-.791.071-.088-.059-.137-.127-.14a.38.38 0 00-.305.126" fill="#FFF"/><path d="M27.974 35.91l-8.571.958c-.77.063-2.128 5.957-2.197 6.352-.24 1.366-.213 2.832-.213 2.832s11.824.25 13.45-.024c-.24-2.06-1.846-10.17-2.47-10.117" fill="#71DB9B"/><path fill="#FFF" d="M29.356 46.157l-1.689-9.964.446-.073 1.689 9.964zm-2.156 0l-1.24-9.777.466-.052 1.242 9.776zm-2.52 0l-.43-9.389.425-.02.43 9.388zm-1.93 0l-.42-.023.433-8.969.42.023zm-1.906-.209l-.436-.044.845-8.53.436.044zm-1.908 0l-.45-.063 1.259-8.51.45.062z"/><path d="M23.61 46.218c-.015-3.004-.23-6.001-.286-9.005-.002-.1-.356-.032-.354.1.056 3.004.27 6 .286 9.005 0 .1.355.033.354-.1" fill="#414042"/><path d="M19.34 37.98c.299 2.104 3.29.647 3.877-.536l-.275.11.618-.05c.187-.016.63.438.854.549.412.205.94.281 1.397.21 1.045-.161 1.736-.812 1.632-1.904-.007-.074-.397-.001-.387.102.148 1.553-1.406 2.001-2.618 1.275-.166-.099-.359-.417-.558-.4l-.77.064c-.409.034-.618.617-.915.864-.853.708-2.275.973-2.467-.387-.01-.077-.401.003-.387.103" fill="#414042"/><path d="M39.822 26.91c.944-2.095 1.137-3.988 1.271-5.164.141-1.233-.361-5.175-.662-6.378-.847-3.385-1.864-4.975-3.52-6.993-2.002-2.439-3.738-3.172-6.62-4.185-1.63-.572-3.342-.738-5.09-.881-1.327-.109-4.458.29-5.763.546-3.014.595-6.228 2.401-8.524 4.495-2.24 2.044-3.061 3.336-4.189 6.185-.96 2.428-1.503 5.538-1.158 8.131.398 2.989 2.52 8.938 4.625 9.444 1.26.303 1.822-1.76 3.04-1.315 1.28.466 2.65.633 3.996.8 4.322.534 8.694-.317 12.96-.92 1.455-.206 2.89-.578 4.314-.924.778-.189.716 3.848 1.396 3.408 2.204-1.426 3.24-4.73 3.924-6.25" fill="#89523B"/><g transform="translate(5.036 2.872)"><mask id="b" fill="#fff"><use xlink:href="#a"/></mask><path d="M34.796 25.02c.935-2.646 1.58-5.443 1.654-8.246.041-1.53.028-3.058-.347-4.551-.48-1.905-1.467-3.693-2.601-5.295-2.141-3.024-5.376-5.01-8.915-6.132-3.215-1.018-6.628-.843-9.909-.32-3.667.586-6.944 2.416-9.607 4.914-2.352 2.206-3.835 5.006-4.59 8.1-.707 2.898-.609 5.743.126 8.608.592 2.31 1.27 4.97 2.785 6.887.531.673 1.207 1.082 2.069.746.5-.195.884-.674 1.237-1.047.218-.23.507-.592.857-.6.215-.004.48.142.68.206.325.105.66.181.994.256 4.173.936 8.436.543 12.621-.067 2.17-.317 4.325-.63 6.457-1.148.227-.055.92-.366 1.065-.15.094.141.14.318.186.478.153.527.215 1.083.3 1.623.062.383.103 1.718.75 1.641.428-.05.817-.542 1.087-.824.559-.584 1.027-1.252 1.466-1.925.645-.988 1.225-2.05 1.635-3.154.113-.305-.52-.15-.603.072-.557 1.502-1.416 2.924-2.392 4.2-.243.317-.51.616-.794.898a4.183 4.183 0 01-.406.351c.24-.184.296.049.19-.132-.218-.371-.242-.895-.31-1.31-.109-.673-.103-1.872-.656-2.377-.332-.303-1.195.123-1.522.203-1.226.3-2.453.548-3.703.729-4.42.641-8.753 1.337-13.226.756-1.087-.141-2.16-.338-3.195-.701-.475-.167-.938.01-1.33.277-.474.323-.819.81-1.241 1.19-.522.471-1.026.14-1.431-.266-.82-.82-1.286-2.03-1.701-3.08-.483-1.22-.862-2.48-1.2-3.746C.985 20.99.722 19.89.625 18.761c-.165-1.925.085-3.904.566-5.771a17.452 17.452 0 011.99-4.692c.873-1.425 2.116-2.624 3.397-3.697a17.307 17.307 0 015.714-3.16c1.552-.508 3.209-.698 4.83-.859 3.229-.32 6.435.23 9.388 1.538 3.293 1.46 5.784 3.81 7.538 6.89.836 1.47 1.476 3.082 1.697 4.756.172 1.296.112 2.646.057 3.947-.105 2.487-.781 5.035-1.609 7.38-.109.307.524.151.603-.073" fill="#414042" mask="url(#b)"/></g><path d="M39.409 24.236c-.056-1.585-1.442-1.73-2.655-1.068l-.3.56c.091-1.232.264-5.99.191-7.064 0 0-16.707-9.719-20.444-8.45-2.872.975-6.528 9.478-6.394 9.087.073 2.08.401 7.518.396 7.412l-.092-.157c-3.46-1.193-3.574 3.865-.646 4.367l-.021-.05c-.339 1.2-.105 2.577.443 3.76 2.097 4.436 9.649 4.793 14.01 4.736 3.23-.041 6.357-.436 9.227-1.985 1.41-.76 2.612-1.549 3.391-2.905 1.052-1.826.667-4.059-.138-5.573-.007-.07-.012-.145-.017-.219l.245.487c1.098.239 2.85-1.63 2.804-2.938" fill="#FCDED0"/><path d="M31.786 20.83c-1.94-.724-3.74.81-3.89 2.557-.073.876.107 2.761.45 3.576.893 2.13 4.489 1.833 5.293-.684.546-1.711.126-4.647-1.853-5.45" fill="#FFF"/><path d="M31.225 21.068c1.447.562 1.62 3.142 1.554 4.355-.044.794-.194 1.682-.668 2.36-.782 1.114-2.455 1.02-3.323.072-.749-.817-1.055-1.994-1.113-3.043-.113-2.015.978-4.743 3.55-3.744" fill="#5F4132"/><path d="M31.04 21.075c1.23.547 1.447 2.148 1.524 3.305.106 1.612-.226 4.434-2.565 3.876-1.772-.422-2.206-2.841-2.12-4.311a4.792 4.792 0 01.571-1.992c.55-1.016 1.56-1.24 2.622-.864.13.046.479-.189.289-.256-1.832-.648-3.19.466-3.694 2.15-.498 1.666-.202 4.634 1.703 5.406a2.56 2.56 0 002.298-.151c.885-.5 1.153-1.65 1.267-2.553.187-1.483.098-4.108-1.543-4.838-.136-.06-.482.17-.352.228" fill="#424142"/><path d="M22.23 29.29c.04-.482.625-.634 1.072-.368.11.066.401-.09.279-.162-.652-.388-1.622-.07-1.678.61-.01.123.317.032.327-.08m-11.92-4.928c-1.34-.426-2.78-.02-3.234 1.377-.488 1.498.594 2.918 2.071 3.268.153.036.522-.234.31-.284-1.197-.284-2.02-1.185-2.049-2.4a2.017 2.017 0 01.535-1.425c.536-.565 1.38-.467 2.056-.252.15.047.523-.217.31-.284" fill="#414042"/><path d="M29.412 23.346c.66-.146.415-1.108-.232-1.022a.477.477 0 00-.172.055c-.458.257-.323 1.019.277.984a.814.814 0 00.127-.017" fill="#FFF"/><path d="M28.734 28.397c1.417-1.041 3.538-1.682 5.183-1.419 0 0 .797.578-1.226 1.617-2.022 1.038-3.957-.198-3.957-.198" fill="#FCDED0"/><path d="M34.036 26.798c-1.93-.354-3.906.408-5.446 1.489-.222.155.156.09.251.024 1.399-.98 3.154-1.612 4.897-1.293.104.02.444-.194.298-.22" fill="#414042"/><path d="M10.373 28.811l.097.09c-.036-.076-.07-.121-.097-.09m.262 1.663a.704.704 0 00-.048.282l.048-.282zm.888-2.227l.034-.282c-.219.07-.068.16-.034.282m3.547.345c0 .018.01.032.008.05.028-.026.016-.04-.008-.05m-1.913 3.138l-.008-.001c.023.058.02.048.008.002m-.008-3.719c.006.01.012.018.018.03.12-.105.073-.09-.018-.03m-1.709 3.32c.007.001.014-.004.019-.004l-.007-.018-.011.022zm.005.19l-.218.206c.18-.111.208-.066.24.009l.195-.427-.217.212m1.277-3.762c.018-.003.03 0 .048-.002a.093.093 0 00-.048.001" fill="#F4A9B3"/><path d="M10.587 30.595c.035-.048.083-.084.132-.121-.062.003-.116.033-.132.121m.853-2.571c.007.002.01-.001.015 0 0-.02-.004-.04-.008-.06l-.006.06zm1.609 4.099a.348.348 0 01-.108-.185c-.018.076.002.146.108.185m1.381-.585l.255.03-.087-.049zm-.411.472l.117-.114c-.077-.043-.086-.095-.133-.167l.016.281z" fill="#F4A9B3"/><path d="M13.975 31.938c-.023.105-.377.303-.043.28.026-.105.283-.195.043-.28m-2.107.144c.22.27.223-.32.401-.034.123-.108-.145-.232-.027-.32-.23.07-.278-.06-.374.354" fill="#F4A9B3"/><path d="M12.081 31.782a.754.754 0 00.137-.053.383.383 0 00-.137.053m-1.848-2.562l-.287.17.097.043c.12-.022.144-.086.19-.214m.179-.627l-.039.037.287.192zm.818-.627c-.081.04-.135.18-.216.222.136-.182.419.184.216-.222m24.337 1.045l.1.12a.44.44 0 00-.1-.12m.127-.209l-.127.022c.081.019.136.018.127-.022m-1.24-.605a.689.689 0 00-.168-.231l.168.231zm1.113 2.069l.228.228c.07-.212-.1-.164-.228-.228m-3.166 1.709c-.012-.015-.026-.021-.035-.036-.008.037.01.04.035.036m-1.076-3.354l.007-.005c-.051-.035-.041-.028-.007.005m3.01 2.703c-.01-.005-.02-.006-.033-.013-.037.148-.005.11.033.013m-1.532-3.567c-.006.003-.007.01-.012.015l.017.007-.005-.022zm.275 0c-.11.145-.183.13-.287.105l.155.321.132-.426zm1.635 3.588c.017-.01.03-.02.038-.034-.013.014-.025.023-.038.034" fill="#F4A9B3"/><path d="M34.238 28.036c-.038.005-.077-.01-.113-.055.038-.045.077-.012.113.055zm1.256.501c.05.018.184.046.125.12-.179.048-.124-.028-.125-.12zm.358.94c.092.09.051.154.142.092-.104-.015-.1-.083-.105-.153-.005-.072-.012-.143-.116-.142l.04-.05c-.002.015.011.016.01.03.089-.103-.154-.055-.143-.168.007-.041.03-.076.06-.054l-.035-.039-.036-.038c-.005-.026.032-.03.037-.003l-.062-.128.006-.002a1.596 1.596 0 01-.132-.039c.012-.042.027.007.047-.011l-.078-.046c.034-.052.109-.019.126.035.079-.074.058-.087.024-.102-.033-.016-.084-.028-.077-.13l.065.054c.074-.102.004-.137 0-.253-.007.02-.014.085-.034.136-.021.052-.056.09-.101.069-.002-.028-.017-.058-.079-.07.058-.044.015-.07-.029-.107l.075-.06c-.066-.03-.098.008-.155.013-.044-.05-.005-.114.023-.172-.078-.084-.019.139-.132.069-.05-.08-.127-.09-.245-.09-.034-.057.04-.044.036-.078l-.044.02-.042.02c-.01-.008.005-.026.013-.035-.054.006-.05.08-.123.075-.059.084-.059-.194-.185-.116-.009-.031.03-.05.039-.086-.136.037-.114.019-.233.093l-.055-.078c.034.083-.059.141-.131.197a.2.2 0 00.004.016l-.02-.005.016-.011a.284.284 0 01-.006-.021l-.02.03-.044-.01a.218.218 0 01.045-.084l.02.064a.435.435 0 00.083-.162.071.071 0 01-.038.018c.01-.014.017-.026.016-.036 0-.01-.015.008-.037.028l.002-.107-.015.04-.058-.047-.059-.043c-.114.088-.213.23-.353.261.042-.074.02-.124.03-.214.03.097.117-.03.191 0-.038-.016-.023-.058-.011-.071l-.074.035c-.037.017-.073.036-.073.036.011-.074-.023-.058-.056-.091.014.148-.109.088-.165.133-.001-.05.014-.1.081-.085-.07-.113-.104.168-.17.072.016 0 .024.007.031-.018-.039.042-.13.008-.108-.035l.016-.001c-.108-.021-.329.006-.335.132a1.561 1.561 0 01.01-.176s-.043.108-.08.215a6.96 6.96 0 00-.028.082l-.057.005c-.02-.114-.045-.247.012-.295-.026-.013-.06-.027-.11.015.019.014.06.15.037.162-.077-.112-.05-.059-.144-.15.029.02.022.19-.017.19.002-.026-.028-.164-.015-.183l-.039.088-.037.09c.02-.034-.018-.14-.049-.182.017.03-.089.011-.113.032l.05.03c-.12-.005-.066.248-.175.26.005-.035-.014-.211-.075-.219-.005.048-.01.164-.024.276-.04.01-.079.019-.118.03.02-.12.05-.246.08-.313-.052-.027-.026-.053-.09-.034-.034-.038.018-.074.037-.081l-.08.004-.08.005c.034.093-.086.125-.056.203l.065-.07.067-.071c.031.095-.017.292-.12.305-.037-.03-.034-.173-.045-.204-.004.036-.078.09-.095.07l.027-.063c-.071-.018-.05.154-.15.087-.027.001-.118-.095-.1-.038.048.054.113.192.16.314-.026.008-.05.018-.075.027l-.012-.037-.014.006.015.035-.076.029c-.041-.074-.014-.195-.067-.246a.145.145 0 01-.004.077c-.033-.011-.023-.08-.07-.048.032.096-.11.036.01.088-.038.047-.063.002-.12.033.031.033.041.12.035.188l-.06.028-.008-.006c-.1.04-.174.026-.263.077-.021-.017-.08-.015-.086-.063-.003.023.005.06-.02.078-.103-.038.052-.05-.047-.111.03.052-.026.11-.04.167.064.064.096-.042.114-.097a.366.366 0 01.049.122 2.453 2.453 0 00-.256.181c-.082.014-.189.165-.301.212.005.024.008.052.021.069-.085.11-.15.226-.19.348a.183.183 0 00-.033-.01l.018.059-.002.005c-.015-.006-.035-.027-.053-.016a.121.121 0 01.048.032l-.015.083c-.002 0-.003.002-.005.004l.004.003a.55.55 0 00-.007.071c-.003.003-.005.003-.008.007.006.005.006.01.006.015-.019.421.25.9.947 1.407.035.025.07.049.107.07-.015.06-.03.123-.064.175.062-.036.072.027.097.084.024.055.064.108.152.049.01.036-.038.033-.04.068.052-.043.087-.042.134.008l-.013.01a.682.682 0 01.2.086c.058.036.118.08.214.115v-.071c.04.017.044.04.06.06.068-.095-.116-.026-.048-.133.012.074.086.088.156.103.07.018.139.022.15.105.066.006-.011-.082.054-.076l.013.045.021-.055c.041.013.06.069.06.105-.01-.005-.031.008-.043.01.055.058.16-.007.18.007l-.064-.026c.09-.022.188-.02.286-.023a.545.545 0 00.272-.08l-.018-.031c.117-.073.107.025.24-.03l-.003.01a.118.118 0 01.091-.065c-.026.045.083.06.047.11.122-.09.056-.065.11-.204l.036.047c.015-.056.01-.082.07-.113-.04.06.068.067.026.143.183.076.164-.18.291-.04.005-.163-.15-.033-.126-.077-.046-.035.01-.124.056-.125.042-.014.15.155.258.103-.01.004-.007.015-.018.019.058.015.056-.084.134-.052-.016-.094.067-.026.018-.133l-.084.07c.042-.055.026-.194.143-.184a.173.173 0 01-.013.09c.045.018.037-.048.082-.032.027.051.002.076-.032.097-.035.02-.078.04-.087.094.054.029.073-.13.106-.004-.038-.158.115-.043.12-.188l.034.061c.005-.016.009-.057.03-.068l.014.098c.013-.1.154-.008.181-.085-.111.081-.075-.05-.153-.06.074-.163.184.08.314-.044-.027.016-.095.013-.085-.03a.263.263 0 01.137-.006c.086-.096-.064-.038-.054-.107.091.033.02-.068.038-.124l.053.05c.136-.068-.085-.128.046-.177l.038.103.028-.064.054.063c.001-.096.025-.104.09-.148-.052-.017-.101-.085-.066-.134.062-.01.044.058.09-.019.026.04.06.09-.02.085.016.016.024.041.041.058.07-.011.087-.09.1-.121-.008.01-.02.022-.033.023l-.01-.085-.011-.082c.034-.005.046.02.057.044.006-.028-.014-.06-.001-.096.048.034.106.058.101.123l.005-.145c.03.002.095-.032.109-.008.058-.051-.044-.19.028-.258-.01-.008-.017-.02-.02-.04.02-.038.054-.069.077-.106a.144.144 0 00.002-.14l.12-.034c-.009-.084-.147.05-.163-.087-.018-.096.097-.02.132-.048-.043-.056-.146-.146-.052-.228.018.03 0 .053.006.08l.065-.064z" fill="#F4A9B3"/><path d="M34.081 27.965c.01.056 0 .113-.009.17.042-.044.059-.101.009-.17m1.492 2.3c-.004.004-.004.008-.006.01a.198.198 0 00.048.032l-.042-.042zM31.51 28.18a.356.356 0 01.193.098c-.025-.071-.082-.121-.193-.099m-1.085 1.249l-.196.167.095-.032zm.231-.627l.002.182c.102.004.154.05.255.1l-.257-.282z" fill="#F4A9B3"/><path d="M30.807 28.862c-.048-.084.136-.397-.137-.213.042.085-.124.274.137.213m1.5-.68c.108-.155.192-.1.07-.418-.246-.07.006.323-.224.217-.029.131.188.086.154.201" fill="#F4A9B3"/><path d="M32.228 27.965a.63.63 0 00-.077.117.356.356 0 00.077-.117m3.225.558l.017-.14-.091.044c-.054.092-.016.137.05.238l.024-.142m.398.487l-.284.172.287-.109-.003-.063zm.134.91c.035-.085-.027-.197.008-.282.028.199-.487.244-.008.281" fill="#F4A9B3"/><path d="M33.857 22.544c-.345-1.098-.907-1.707-2.068-2.018-1.027-.275-2.157.127-2.986.69-.222.15.159.053.241-.003 1.004-.68 2.166-.7 3.217-.197.693.331.999 1.042 1.208 1.706.02.063.418-.084.388-.178" fill="#414042"/><path d="M6.744 19.647s2.074 7.826 2.648 8.945c0 0 .924-1.335.894-2.188-.03-.853.329-6.461.329-6.461s.592-.97 2.243-2.495c.255-.236.682-2.859.983-3.092.264-.206.72 2.295 1.02 2.1 1.59-1.036 3.52-2.132 6.21-2.274 6.19-.327 9.666 2.29 11.772 3.301 2.767 1.33 2.375 1.911 2.375 1.911s1.156 7.265 1.217 7.595c.06.33.314.653.314.653s2.91-8.35 2.874-10.72c-.036-2.37-10.2-12.342-17.665-11.947-7.32.387-13.96 10.317-14.02 11.359-.152 2.566-1.194 3.313-1.194 3.313" fill="#89523B"/><path d="M27.028 11.201a18.57 18.57 0 01.528 3.747c.005.121.329.008.324-.097a18.85 18.85 0 00-.536-3.79c-.024-.094-.344.025-.316.14" fill="#414042"/><path d="M35.532 18.92c-2.997-2.539-6.674-4.317-10.656-4.76-1.719-.191-3.486-.12-5.196.119-1.782.249-3.823.925-5.196 2.086l.508-.095c-.223-.748-.443-1.497-.664-2.245-.06-.206-.58.092-.606.238l-.523 2.955c.01-.061-.378.246-.471.321-.239.19-.457.404-.675.615-.67.649-1.304 1.304-1.667 2.16-.107.252.51.066.585-.108.386-.912 1.102-1.599 1.825-2.275.225-.211.963-.613 1.015-.904l.524-2.962-.606.238c.22.749.44 1.498.664 2.245.05.17.446-.042.508-.095 1.47-1.244 3.677-1.756 5.576-1.914 1.655-.138 3.263-.12 4.905.118 3.558.515 6.93 2.334 9.607 4.601.154.13.722-.188.543-.339M9.515 28.362c-.92-2.701-1.914-5.45-2.377-8.273-.027-.166-.415-.004-.393.127.466 2.843 1.461 5.609 2.387 8.33.044.13.432-.04.383-.184" fill="#414042"/><path d="M11.393 12.536c-.683 3.127-.99 6.386-1.202 9.571-.112 1.692-.228 3.385-.271 5.08-.007.26-.353.596-.465.83a6.02 6.02 0 00-.392 1.074c-.218.82-.23 1.686-.099 2.519.436 2.76 3.13 4.28 5.625 5.027 2.71.81 5.618.95 8.434.946 3.16-.003 6.308-.3 9.227-1.564 2.558-1.107 5.01-2.897 5.225-5.826a5.813 5.813 0 00-.184-1.845c-.15-.585-.55-1.193-.614-1.78a136.231 136.231 0 00-.497-3.9c-.453-3.274-1.11-6.468-2.088-9.633-.073-.236-.68.026-.6.283 1.209 3.913 1.87 7.877 2.382 11.926.045.356.088.712.13 1.069.024.204-.007.552.088.736.41.794.66 1.63.748 2.516.205 2.05-.86 3.746-2.533 4.894-3.484 2.391-7.778 2.73-11.903 2.678-2.92-.038-5.95-.281-8.68-1.366-1.72-.682-3.271-1.847-3.937-3.589-.427-1.115-.356-2.418-.014-3.542a3.94 3.94 0 01.726-1.353c.204-.249.072-1.127.085-1.442.195-4.448.458-9.017 1.412-13.381.071-.326-.552-.159-.603.072m-5.28 10.819c.33.677.656 1.356.962 2.045.06.137.362-.007.301-.145a63.228 63.228 0 00-.963-2.046c-.065-.135-.366.01-.3.146" fill="#414042"/><path d="M30.019 18.226c.287-.062.783-.03 1.062.035.021-.159-.16-.32-.311-.405a1.263 1.263 0 00-.69-.134c-.287.02-1.144.697-.863.823.163.073.637-.283.802-.319" fill="#8D6348"/><path d="M29.808 18.221c.302-.056.62-.03.92.035.08.018.365-.085.355-.19-.044-.445-.699-.638-1.07-.525-.304.092-.572.287-.801.502-.09.084-.434.437-.16.503.281.067.562-.256.797-.335.09-.03.39-.261.144-.178a2.19 2.19 0 00-.413.203c-.064.037-.196.156-.256.066-.038-.055.048-.157.075-.195.116-.158.336-.377.54-.383.316-.01.74.168.775.522l.356-.19a2.63 2.63 0 00-1.036-.034c-.075.014-.412.234-.226.2" fill="#414042"/><path d="M21.983 30.985c-.483-.058-1.114-.069-1.144.392-.075 1.137.914 2.446 2.322 2.204 2.05-.351 3.068-1.452 2.736-3.034-.132-.63-1.307-.064-2.426.335-.296.106-1.026.159-1.488.103" fill="#FFF"/><path d="M22.136 30.945c-.478-.046-.925-.043-1.32.24-.394.28-.093 1.028.063 1.35.655 1.348 2.291 1.227 3.498.726 1.026-.425 1.93-1.23 1.779-2.396-.074-.564-.364-.684-.931-.55-1.066.25-1.953.722-3.09.63-.104-.008-.434.208-.297.219.926.075 1.651-.132 2.511-.432.473-.165 1.273-.52 1.403.156a1.94 1.94 0 01-.236 1.33c-.57.998-2.33 1.475-3.371 1.01-.445-.199-.75-.598-.95-1.011a1.9 1.9 0 01-.166-.714c-.025-.406.518-.368.809-.34.104.01.436-.204.298-.218" fill="#414042"/><path d="M16.832 19.81c-.847.032.566 1.494.857 1.463.531-.057-.422-1.48-.857-1.463" fill="#8D6348"/><path d="M16.82 19.601c-.465.032-.586.354-.354.716.233.364.658.794 1.083.939a.432.432 0 00.443-.135c.13-.156.044-.372-.032-.532-.18-.376-.63-.972-1.103-.988-.125-.005-.35.219-.153.226.307.01.6.387.763.603.103.136.19.285.25.443a.447.447 0 01.026.172c0 .024.067.017-.035-.024-.272-.112-.514-.36-.712-.568a1.829 1.829 0 01-.299-.402c-.067-.127-.1-.215.045-.225.144-.01.299-.24.078-.225" fill="#414042"/><path d="M11.233 34.72c.035.04.022.084.027.14.004.06.414-.094.402-.251-.005-.056.01-.098-.027-.14-.054-.061-.177.022-.228.054-.014.009-.215.15-.174.197m2.888-12.498c1.84-.954 3.83.356 4.2 2.08.186.863.248 2.763.011 3.617-.618 2.23-4.237 2.367-5.36-.043-.762-1.64-.719-4.615 1.15-5.654" fill="#FFF"/><path d="M14.702 22.252c-1.357.73-1.2 3.308-.981 4.503.144.781.405 1.644.959 2.258.913 1.01 2.553.717 3.29-.326.635-.9.788-2.103.712-3.15-.144-2.01-1.568-4.584-3.98-3.285" fill="#5F4132"/><path d="M16.816 24.405c-.677-.08-.581-1.061.074-1.04a.494.494 0 01.18.037c.493.21.475.981-.126 1.007a.814.814 0 01-.128-.004" fill="#FFF"/><path d="M12.54 28.435c1.89-.62 3.97-.062 5.655.89.242.137-.145.117-.25.058-1.53-.864-3.37-1.312-5.077-.752-.101.034-.47-.15-.328-.196m-.245-4.185c.2-1.186.676-1.89 1.786-2.358.981-.413 2.154-.133 3.047.35.24.13-.15.077-.239.028-1.083-.586-2.236-.463-3.211.19-.644.432-.855 1.21-.975 1.928-.012.068-.425-.036-.408-.138" fill="#414042"/><path d="M18.06 29.315c-1.581-.846-3.815-1.197-5.438-.712 0 0-.721.685 1.47 1.446 2.193.761 3.967-.734 3.967-.734" fill="#FCDED0"/><path d="M11.945 31.877c.032.02.049.056.04.116-.061.008-.065-.044-.04-.116m-.434-1.263c-.017-.04-.082-.14.021-.138.157.092.06.093-.02.138m5.464.456c.02-.058.023-.124-.087-.131.016-.034.053-.003.078-.029-.07.003-.098-.02-.101-.087l.017-.001c-.044-.076-.08-.124-.101-.19-.026-.06-.039-.138-.095-.22l-.046.057c-.022-.036-.011-.057-.011-.084-.118.04.078.089-.047.136.073-.134-.197-.21-.115-.348-.051-.041-.042.073-.092.033l.016-.045-.051.034c-.027-.032-.007-.089.017-.12.005.01.03.01.041.015-.01-.076-.137-.084-.142-.109l.033.061a3.234 3.234 0 01-.249-.14.466.466 0 00-.27-.085l-.006.036c-.142.001-.072-.081-.212-.11l.008-.005a.127.127 0 01-.115.005c.049-.023-.03-.094.03-.118-.156.012-.086.024-.215.109l.001-.06c-.046.038-.058.063-.126.058.068-.03-.015-.093.067-.135-.104-.158-.242.057-.257-.132-.105.132.097.115.052.138.015.058-.083.094-.121.071-.042-.013-.025-.208-.143-.23.012.004.015-.007.026-.004-.035-.048-.095.034-.135-.04-.047.087-.07-.015-.098.101l.055-.006c.027-.004.055-.004.055-.004-.066.017-.144.152-.229.07a.21.21 0 01.067-.064c-.023-.039-.058.015-.083-.024.025-.117.132-.01.213-.09-.023-.054-.138.069-.084-.054-.073.156-.115-.036-.21.078l.013-.07c-.014.01-.044.039-.066.035l.051-.087c-.072.07-.121-.077-.19-.04.135.006.025.088.076.143-.161.085-.084-.178-.257-.166.03.005.077.051.042.078a.263.263 0 01-.102-.08c-.124.017.019.072-.033.117-.043-.086-.06.038-.11.067l-.003-.073c-.14-.041-.028.152-.153.1l.044-.102s-.062.028-.062.03l.006-.084c-.066.07-.088.056-.162.041.023.05.008.132-.05.142-.048-.038.012-.071-.072-.05.011-.048.025-.107.073-.045 0-.024.013-.048.013-.072-.053-.043-.118.003-.15.01.014-.001.03.002.039.01a2.574 2.574 0 00-.107.124c-.025-.022-.015-.047-.004-.071-.024.013-.034.05-.07.064-.004-.06-.021-.118.028-.158l-.108.092c-.015-.024-.083-.054-.073-.079-.082-.02-.133.163-.237.148 0 .012-.006.026-.021.04-.09.014-.19-.015-.246.098l-.052-.035a20.473 20.473 0 00-.052-.033c-.06.06.135.08.037.178-.064.074-.078-.061-.123-.07-.016.067-.021.202-.146.18.012-.033.041-.033.06-.054l-.093-.01c.013-.126.09-.134-.017-.166.054.089 0 .13-.054.172-.054.047-.106.096-.04.176l-.066-.004c.012-.008.005-.017.017-.024-.14-.011.053.155-.048.21-.04.016-.082.02-.083-.018l-.019.102c-.02.018-.046-.009-.025-.027 0 0-.02.029-.038.06a32.84 32.84 0 01-.033.063l-.005-.004c.017.035.035.096.044.124-.042.016-.011-.025-.038-.03l.01.09c-.064.004-.084-.077-.048-.12-.112-.02-.11.005-.1.04.01.038.02.08-.067.138 0 0 .004-.084.006-.083-.134.002-.118.08-.22.155.02-.007.084-.042.141-.057.059-.015.112-.011.122.038-.023.018-.045.048-.013.104-.074-.018-.068.033-.076.09l-.099-.02c.018.071.072.072.112.114-.018.067-.096.078-.161.094-.016.117.125-.075.144.058-.04.093.011.158.088.247-.02.065-.062.001-.086.027l.09.037c.001.013-.024.015-.036.015.04.037.096-.017.142.039.056-.006.027.035.003.087-.023.05-.036.111.038.126-.018.03-.06.014-.094.034.123.073.098.066.237.096l-.019.095c.038-.083.152-.064.244-.055l.009-.014.01.016a.643.643 0 00-.02-.002.452.452 0 00-.011.02l.038-.01.025.036a.257.257 0 01-.096.033l.033-.06c-.065.014-.134.028-.182.061.013 0 .028.006.04.014-.017.003-.032.007-.038.015-.008.008.017.005.048.005l-.081.077.04-.02.008.074.012.072c.15.011.327-.031.454.034-.085.03-.105.082-.178.144.049-.093-.108-.054-.144-.125.018.037-.023.058-.043.06l.082.023.08.02c-.06.05-.024.059-.023.106.097-.122.146.003.22.005-.034.039-.08.067-.121.013-.028.131.198-.063.18.054-.013-.01-.013-.022-.036-.007.059-.008.104.076.058.096l-.014-.01c.068.086.26.202.35.105a1.409 1.409 0 01-.127.134s.107-.058.208-.121l.078-.049.047.03c-.061.103-.13.226-.208.228.012.027.03.06.098.056-.007-.022.053-.157.078-.153-.013.137.001.078.015.208-.01-.034.108-.167.139-.143-.02.02-.086.15-.109.157l.09-.049.088-.05c-.038.015-.077.123-.079.176.006-.034.08.045.114.04l-.022-.053c.096.072.211-.164.308-.115-.026.027-.122.184-.075.226.033-.036.11-.131.189-.218.038.015.076.029.114.041-.088.09-.189.179-.257.22.028.051-.01.058.056.077.005.051-.062.053-.082.048l.143.083c.028-.098.15-.06.17-.143l-.097.025c-.05.013-.1.023-.1.023.031-.096.191-.24.283-.194.015.045-.072.167-.081.2.025-.03.12-.037.123-.01l-.06.04c.05.053.131-.106.178.004.022.013.044.144.062.086-.01-.073.014-.227.044-.356l.079.016-.012.038.016.002.007-.038.08.014c-.007.086-.099.177-.083.249a.16.16 0 01.047-.066c.021.027-.026.082.032.079.027-.1.112.027.04-.08.06-.021.055.028.12.032-.007-.045.033-.124.077-.18l.067.007.002.01c.105.02.16.07.262.075.008.025.057.057.034.1.016-.017.03-.051.062-.053.06.09-.072.012-.027.12.006-.06.085-.08.13-.119-.014-.092-.103-.017-.15.018a.378.378 0 01.032-.13c.107.003.213.002.319-.004.074.036.254-.018.369.021.012-.02.03-.044.032-.066.138-.023.272-.056.398-.099a.14.14 0 00.012.032l.037-.048.006-.003c.004.017-.002.045.017.053a.109.109 0 010-.06l.08-.031c.002 0 .004 0 .006.002v-.005l.068-.032c.003.001.005.003.01.003 0-.008.005-.01.01-.012.507-.253.814-.713.643-1.467-.01-.04-.02-.08-.033-.119.053-.037.107-.076.17-.094-.073-.01-.038-.064-.015-.126" fill="#F4A9B3"/><path d="M17.916 40.011c-.438 2.02-.945 3.998-.923 6.09 0 .114.356.042.355-.102-.021-2.072.489-4.035.923-6.037.03-.137-.327-.077-.355.049m11.033-1.252a39.091 39.091 0 011.336 7.163c.006.065.38-.003.37-.1a39.1 39.1 0 00-1.336-7.163c-.023-.081-.392.022-.37.1" fill="#414042"/><path d="M18.273 39.884c-.13 1.048-1.072 5.06-2.793 4.294-.903-.401-.729-3.188-.085-4.093" fill="#FDE0D2"/><path d="M17.97 40.082c-.171 1.312-.538 2.892-1.442 3.912-.937 1.057-1.352-.649-1.378-1.3-.031-.791.083-1.718.51-2.403.145-.235-.373-.234-.486-.053-.552.888-1.178 5.023.98 4.39 1.651-.485 2.145-3.16 2.33-4.586.034-.25-.485-.18-.514.04" fill="#414042"/><path d="M32.418 38.653c.341 1.467 1.172 3.292-.084 4.033-1.538.907-2.874-3.347-3.6-5.102" fill="#FDE0D2"/><path d="M32.1 38.645c.22.904.572 1.806.564 2.748-.004.562-.449 1.338-1.088.983-.29-.161-.503-.476-.688-.739-.873-1.24-1.299-2.783-1.86-4.174-.077-.19-.571-.043-.5.133.407 1.01.767 2.035 1.225 3.024.353.763.815 1.77 1.645 2.115.595.247 1.198-.15 1.54-.61.7-.941-.104-2.65-.338-3.614-.047-.19-.547-.06-.5.134" fill="#414042"/><path d="M15.344 37.718c-.621.56-2.369 1.97-2.181 2.261.403.625 1.642-.336 1.642-.336s-1.255 1.218-.82 1.564c.408.324 1.895-.822 1.895-.822s-1.052 1.118-.781 1.522c.39.583 1.594-1.042 1.594-1.042s-.498 1.278.12 1.318c.708.044 1.344-1.228 1.715-1.71.775-1.008.845-2.245-.07-3.194-.711-.737-2.745-.987-3.673-.462-1.275.722.074 1.338.559.9" fill="#FDE0D2"/><path d="M15.198 37.56c-.507.441-1.028.866-1.52 1.323-.195.18-.826.663-.733.998.241.875 1.672.065 2.06-.221l-.383-.197c-.268.258-1.446 1.417-.742 1.761.681.333 1.681-.47 2.187-.847l-.383-.196c-.35.369-1.36 1.457-.548 1.834.634.294 1.481-.829 1.778-1.215l-.456-.11c-.128.334-.34.892-.135 1.228.238.395.811.297 1.137.048.596-.454 1.069-1.17 1.451-1.803.516-.855.59-1.731.094-2.61-.742-1.312-3.056-1.498-4.305-.897-1.362.657-.158 1.796.837 1.142.283-.187-.127-.377-.34-.238-.221.116-.426.085-.614-.093-.297-.298.67-.636.787-.668.436-.118.925-.078 1.366-.025 1.149.14 2.048.836 2.114 2.02.048.846-.615 1.574-1.077 2.232-.115.165-1.038 1.11-.995.374.013-.22.087-.442.166-.646.1-.261-.339-.262-.456-.11-.28.366-.604.755-1.012.988-.268.153.227-.813.246-.84.118-.16.251-.31.388-.456.21-.222-.227-.312-.382-.196-.395.293-.82.578-1.29.745-.475.169.16-.782.2-.83a5.2 5.2 0 01.41-.436c.218-.21-.226-.313-.383-.197a3.771 3.771 0 01-.458.285c-.022.012-.91.293-.69-.047.079-.12.188-.224.285-.328.527-.56 1.155-1.03 1.735-1.534.255-.223-.143-.408-.34-.238" fill="#414042"/><path d="M29.1 38.798c1.264.781 2.294 1.318 3.165.985.645-.246-.483-1.02-.483-1.02s1.295.752 1.634.207c.271-.436-1.056-1.024-1.056-1.024s1.723.82 1.682.125c-.023-.38-1.452-.856-1.452-.856s.844.216 1.204.163c1.2-.176-1.86-1.855-2.088-2.03 1.032.664 1.565.005 1.201-.442-.499-.612-2.477-.901-3.474-.444-1.293.593-2.293 1.702-1.461 3.099.23.385.589.904 1.127 1.237" fill="#FDE0D2"/><path d="M28.899 38.945c.922.573 2.296 1.524 3.443.99.75-.349.019-1.011-.39-1.305l-.393.279c.457.263 1.469.758 1.93.24.542-.607-.502-1.129-.965-1.343-.18-.084-.634.164-.393.279.535.254 1.424.699 1.976.279.73-.557-1.092-1.21-1.403-1.317l-.297.322c.28.071 2.216.472 1.827-.398-.372-.833-1.658-1.287-2.358-1.788l-.393.28c.353.199 2.015.61 1.75-.395-.24-.917-1.802-1.06-2.559-1.037-1.098.033-2.367.536-2.945 1.543-.726 1.264.096 2.61 1.17 3.37.168.12.62-.118.393-.279a3.58 3.58 0 01-1.28-1.661c-.33-.864.284-1.63.935-2.106.624-.457 1.317-.552 2.069-.502.345.023.68.106 1.007.213.155.052.3.124.435.215.394.264.2.383-.582.36-.168-.096-.628.11-.393.278.463.332.969.605 1.436.932.283.197.565.408.783.678.173.216-.82.02-.998-.025-.19-.048-.604.216-.297.322.416.144.825.316 1.188.568.428.296-.549.083-.633.053a4.792 4.792 0 01-.438-.184l-.393.279c.322.148.636.328.894.574.414.394-.336.292-.52.23a3.057 3.057 0 01-.554-.26c-.167-.096-.626.112-.392.28.136.098.954.708.29.813-.869.137-1.867-.627-2.557-1.057-.175-.108-.626.134-.393.28m-13.76-1.169c.69.202 1.337.4 1.996.012.21-.124-.11-.173-.227-.103-.493.29-1.046.049-1.545-.097-.116-.034-.43.128-.224.188" fill="#414042"/><path d="M31.48 35.427c-.417.211-.994.336-1.345-.097-.105-.129-.424.034-.308.177.474.583 1.233.442 1.802.154.213-.107.024-.32-.148-.234" fill="#414042"/></g></svg>