<svg width="9" height="9" xmlns="http://www.w3.org/2000/svg"><path d="M3 3.169a.97.97 0 01.107-.443 1.26 1.26 0 01.286-.373 1.42 1.42 0 01.411-.257A1.26 1.26 0 014.29 2c.119 0 .236.01.352.032.117.021.227.054.331.098.104.045.201.101.29.17a1.076 1.076 0 01.383.569c.037.121.055.256.055.406 0 .137-.023.269-.07.393a1.665 1.665 0 01-.182.353 2.29 2.29 0 01-.252.31 4.498 4.498 0 01-.281.267 1.39 1.39 0 00-.144.146 1.034 1.034 0 00-.207.387 1.21 1.21 0 00-.043.26.305.305 0 01-.163.253.242.242 0 01-.116.027.214.214 0 01-.114-.03.262.262 0 01-.08-.077.42.42 0 01-.066-.223 1.085 1.085 0 01.045-.322c.03-.103.071-.2.12-.291.05-.091.105-.175.167-.251.062-.077.124-.144.187-.203a4.03 4.03 0 00.206-.207 1.92 1.92 0 00.185-.235c.056-.083.1-.17.135-.263a.836.836 0 00.052-.294.896.896 0 00-.054-.322.658.658 0 00-.153-.238.653.653 0 00-.237-.148.891.891 0 00-.308-.05.824.824 0 00-.295.048.633.633 0 00-.213.131.738.738 0 00-.145.194c-.038.073-.07.15-.094.23a1.143 1.143 0 01-.046.125.45.45 0 01-.063.105.259.259 0 01-.21.1.27.27 0 01-.182-.072.247.247 0 01-.058-.087A.323.323 0 013 3.169zm.87 3.405a.451.451 0 01.114-.301.39.39 0 01.124-.091.353.353 0 01.152-.033c.054 0 .105.01.152.033a.39.39 0 01.124.09.432.432 0 01.113.302.451.451 0 01-.113.302.39.39 0 01-.124.09A.353.353 0 014.26 7a.353.353 0 01-.152-.033.39.39 0 01-.124-.091.432.432 0 01-.113-.302z" fill="#FFF" fill-rule="evenodd"/></svg>