<svg width="22" height="20" xmlns="http://www.w3.org/2000/svg"><g fill="none" fill-rule="evenodd"><path d="M10.94 4.18C11.747 2.308 13.591 1 15.736 1c2.89 0 4.97 2.418 5.232 5.3 0 0 .141.715-.17 2.003-.423 1.754-1.418 3.312-2.759 4.501L10.94 19l-6.98-6.196c-1.34-1.19-2.335-2.748-2.758-4.501-.311-1.288-.17-2.004-.17-2.004C1.294 3.418 3.374 1 6.264 1c2.145 0 3.869 1.308 4.676 3.18z" stroke="#00A550"/><path d="M3.379 7.09A.375.375 0 013 6.72C3 4.669 4.7 3 6.788 3c.21 0 .379.166.379.372s-.17.372-.38.372c-1.67 0-3.03 1.335-3.03 2.975a.375.375 0 01-.378.372z" fill="#00A550"/></g></svg>