<svg width="17" height="21" xmlns="http://www.w3.org/2000/svg"><path d="M15.02 13.918h0c-.503 0-.787-.286-.95-.952-.165-.682-.17-1.671-.177-2.718-.007-1.27-.015-2.707-.303-3.993-.035-.152-.175-.245-.314-.208-.14.038-.225.191-.19.343.274 1.221.281 2.624.288 3.861.006 1.084.012 2.108.195 2.86.08.327.194.596.341.807H3.097c.147-.211.262-.48.341-.807.183-.752.189-1.776.195-2.86.01-1.655.02-3.531.64-4.967.697-1.617 2.081-2.402 4.23-2.402 1.181 0 2.147.242 2.872.72.628.415 1.09 1.004 1.41 1.801.057.144.21.209.342.146.13-.063.19-.23.133-.374-.36-.895-.904-1.588-1.617-2.058-.455-.3-.99-.517-1.598-.65C9.983 1.598 9.315.91 8.504.91c-.813 0-1.48.688-1.541 1.56a4.71 4.71 0 00-1.535.606c-.709.45-1.255 1.111-1.625 1.967-.669 1.549-.68 3.492-.689 5.206-.006 1.047-.011 2.036-.177 2.718-.163.666-.446.951-.949.952h-.001c-.839 0-1.521.745-1.521 1.662 0 .917.682 1.662 1.521 1.662h1.642c.144 0 .26-.127.26-.283 0-.157-.116-.284-.26-.284H1.987c-.553 0-1.002-.491-1.002-1.095s.45-1.095 1.002-1.095H15.02c.553 0 1.003.491 1.003 1.095s-.45 1.095-1.003 1.095H4.668c-.144 0-.26.127-.26.284 0 .156.116.283.26.283h1.065C5.864 18.787 7.056 20 8.503 20c1.448 0 2.64-1.213 2.771-2.758h3.746c.84 0 1.522-.745 1.522-1.662 0-.917-.683-1.662-1.522-1.662zM8.504 1.476c.497 0 .912.388 1.007.901a7.871 7.871 0 00-1.007-.062c-.353 0-.689.02-1.007.062.094-.513.51-.9 1.007-.9h0zm0 17.957c-1.161 0-2.12-.96-2.25-2.19h4.499c-.13 1.23-1.089 2.19-2.25 2.19h0z" fill="#00A550" stroke="#00A550" stroke-width=".25"/></svg>