<svg width="25" height="22" xmlns="http://www.w3.org/2000/svg"><g fill="none" fill-rule="evenodd"><path d="M24 11.44a.523.523 0 01-.354-.134L12.5 1.105l-11.146 10.2a.533.533 0 01-.708 0 .43.43 0 010-.646L12.146.134a.533.533 0 01.708 0l11.5 10.525a.43.43 0 010 .647.523.523 0 01-.354.134z" fill="#00A551" fill-rule="nonzero"/><path d="M21.24 5.28c-.327 0-.592-.175-.592-.391V2.542h-3.555c-.328 0-.593-.175-.593-.39 0-.217.265-.392.593-.392h4.148c.327 0 .592.175.592.391V4.89c0 .216-.265.391-.592.391z" fill="#EE6D00"/><path d="M21.34 22h-5.926a.487.487 0 01-.494-.48v-6.24h-3.95v6.24c0 .265-.222.48-.495.48H4.55a.487.487 0 01-.493-.48v-9.6c0-.265.22-.48.493-.48s.494.215.494.48v9.12h4.938V14.8c0-.265.221-.48.494-.48h4.939c.273 0 .493.215.493.48v6.24h4.939V12.4c0-.265.22-.48.493-.48s.494.215.494.48v9.12c0 .265-.22.48-.494.48z" fill="#EF2B2F"/></g></svg>