<svg width="19" height="19" xmlns="http://www.w3.org/2000/svg"><g fill="none" fill-rule="evenodd"><path d="M13.654 13.826a.654.654 0 00.455.174.653.653 0 00.454-.174l4.233-3.92a.389.389 0 00.079-.087s.015-.014.015-.029c.016-.029.032-.058.047-.072 0-.015 0-.03.016-.03.016-.028.016-.043.031-.072C19 9.573 19 9.544 19 9.5c0-.044 0-.073-.016-.116a.107.107 0 00-.031-.073c0-.014 0-.029-.016-.029l-.047-.087s0-.014-.015-.014c-.016-.03-.047-.058-.079-.087l-4.233-3.92a.68.68 0 00-.909 0 .565.565 0 000 .842l3.135 2.903H5.643c-.36 0-.643.262-.643.596 0 .333.282.595.643.595h11.146l-3.135 2.903c-.25.203-.25.58 0 .813z" fill="red"/><path d="M.725 19h9.55c.407 0 .725-.295.725-.671v-5.428c0-.377-.318-.671-.725-.671s-.725.294-.725.67v4.758h-8.1V1.342h8.1v4.773c0 .376.318.67.725.67s.725-.294.725-.67V.67c0-.375-.318-.67-.725-.67H.725C.318 0 0 .295 0 .671v17.658A.715.715 0 00.725 19z" fill="#00A550"/></g></svg>