<?xml version="1.0" encoding="utf-8"?>
<!-- Generator: Adobe Illustrator 25.0.0, SVG Export Plug-In . SVG Version: 6.00 Build 0)  -->
<svg version="1.1" id="Layer_1" xmlns="http://www.w3.org/2000/svg" xmlns:xlink="http://www.w3.org/1999/xlink" x="0px" y="0px"
	 viewBox="0 0 300 300" style="enable-background:new 0 0 300 300;" xml:space="preserve">
<style type="text/css">
	.st0{fill:none;stroke:#9A9A9C;stroke-width:10.4328;stroke-miterlimit:10;stroke-dasharray:9.1808;}
	.st1{fill:none;stroke:#00A550;stroke-width:10;stroke-linecap:round;stroke-linejoin:round;stroke-miterlimit:10;}
	.st2{fill:none;stroke:#F27022;stroke-width:10;stroke-linecap:round;stroke-linejoin:round;stroke-miterlimit:10;}
	.st3{fill:none;stroke:#EA1C24;stroke-width:11;stroke-linecap:round;stroke-linejoin:round;stroke-miterlimit:10;}
</style>
<g>
	<g>
		<line class="st0" x1="76" y1="113.4" x2="123.3" y2="97.3"/>
		<g>
			<path class="st1" d="M134.8,94.7L107,56.5l-0.2-5.5c0,0-2.3-21.1-12.1-18.3s-29.3,11-29.3,11s-4.7,2-2.5,8
				c3.8,10.5,8.8,13,8.8,13l-2.3,62.2"/>
			<line class="st1" x1="72.1" y1="65.5" x2="102.6" y2="53.2"/>
		</g>
	</g>
	<g>
		<path class="st2" d="M123.3,128.9l5.9-23.5l31-47.7c0,0,1.6-3.4,7.4-2.3c5.7,1.2,75.9,35,75.9,35s3.1,1.6,2.2,6.4
			c-0.8,3.9-9.8,32-9.8,32"/>
		<line class="st0" x1="152.6" y1="85.7" x2="235.3" y2="122.7"/>
	</g>
	<g>
		<path class="st1" d="M47,134.2l208.4,0.6c0,0,5.9,1.4,6.7,6c0.8,4.6,0.3,15.9,0.3,15.9s-0.7,9.4-6.1,13.6
			c-5.4,4.2-36.4,90-36.4,90s-1.9,4.9-6.9,6.8s-125.5,0-125.5,0s-6.1-2.2-8-6.8c-1.9-4.6-29.8-85.7-29.8-85.7s-10-9.3-11.1-14.3
			c-1.2-5,0-17.6,0-17.6S40.2,134.2,47,134.2z"/>
		<line class="st1" x1="41.4" y1="165.1" x2="259.5" y2="165.1"/>
		<g>
			<line class="st1" x1="149.6" y1="242" x2="149.6" y2="186.2"/>
			<line class="st1" x1="183.9" y1="242" x2="203.9" y2="186.2"/>
			<line class="st1" x1="118.6" y1="242" x2="98" y2="186.2"/>
		</g>
	</g>
	<g>
		<line class="st3" x1="234.7" y1="130.2" x2="261.4" y2="228.6"/>
		<line class="st3" x1="62.4" y1="130.4" x2="40.1" y2="225.7"/>
	</g>
</g>
</svg>
