<svg xmlns="http://www.w3.org/2000/svg" viewBox="0 0 18.99 18.33"><defs><style>.cls-1,.cls-3,.cls-4{fill:none;stroke-linecap:round;stroke-linejoin:round;stroke-width:0.5px;}.cls-1{stroke:#00a551;}.cls-2{fill:#f26f21;}.cls-3{stroke:#f26f21;}.cls-4{stroke:#ec1c24;}</style></defs><title>Asset 1</title><g id="Layer_2" data-name="Layer 2"><g id="Layer_1-2" data-name="Layer 1"><path class="cls-1" d="M.25,15.14s-.15-1,1.31-1.34c0-.69-.27-2.33,1.57-2.59H12.7s1.54-.13,1.42,2.54a1.47,1.47,0,0,1,1.23,1.69c0,.94-1,1-1.13,1.1-.08.52.13,1.37-1.14,1.54-2.79,0-10.55,0-10.55,0a1.24,1.24,0,0,1-1-1.56A1.35,1.35,0,0,1,.25,15.14Z"/><line class="cls-1" x1="1.57" y1="13.81" x2="14.12" y2="13.77"/><line class="cls-1" x1="1.52" y1="16.54" x2="14.21" y2="16.56"/><rect class="cls-2" x="2.87" y="12.02" width="0.52" height="0.52"/><rect class="cls-2" x="4.44" y="12.54" width="0.52" height="0.52"/><rect class="cls-2" x="6" y="12.02" width="0.52" height="0.52"/><rect class="cls-2" x="7.55" y="12.54" width="0.52" height="0.52"/><rect class="cls-2" x="9.11" y="12.02" width="0.52" height="0.52"/><rect class="cls-2" x="10.69" y="12.54" width="0.52" height="0.52"/><rect class="cls-2" x="12.26" y="12.02" width="0.52" height="0.52"/><path class="cls-3" d="M1.14,14.83a2.88,2.88,0,0,1,1.24.31,2.3,2.3,0,0,0,2.07,0,2.87,2.87,0,0,1,2.35,0,2.5,2.5,0,0,0,2.14,0,2.65,2.65,0,0,1,2.24,0,2.48,2.48,0,0,0,1.89,0,3.41,3.41,0,0,1,1.39-.25"/><path class="cls-4" d="M4.52,10.35a1.32,1.32,0,0,1,.33-.66.63.63,0,0,0-.1-.91.62.62,0,0,1-.12-.92C5,7.52,5,7.52,5,7.32"/><path class="cls-4" d="M6.1,9.87a1.32,1.32,0,0,1,.33-.66.63.63,0,0,0-.1-.91.62.62,0,0,1-.12-.92c.33-.34.34-.34.37-.54"/><path class="cls-4" d="M7.64,10.35A1.32,1.32,0,0,1,8,9.69a.63.63,0,0,0-.1-.91.62.62,0,0,1-.12-.92c.33-.34.34-.34.37-.54"/><polygon class="cls-1" points="13.56 0.25 14.84 0.25 14.84 4.32 18.74 4.36 18.74 5.88 9.57 5.88 9.57 4.29 13.54 4.29 13.56 0.25"/><polyline class="cls-1" points="17.86 5.88 16.94 17.98 14.6 17.98"/><line class="cls-1" x1="10.54" y1="5.88" x2="10.95" y2="10.6"/><line class="cls-1" x1="14.83" y1="4.32" x2="13.61" y2="4.32"/></g></g></svg>