<svg width="51" height="45" xmlns="http://www.w3.org/2000/svg"><g fill="none" fill-rule="evenodd"><path d="M47.513 7.69h-1.99l.002-3.463c.001-2.325-1.94-4.218-4.33-4.219L26.094 0h-.002c-.86 0-1.668.326-2.276.918L1.27 22.868A4.133 4.133 0 000 25.847a4.13 4.13 0 001.269 2.982L15.9 43.075a4.379 4.379 0 003.063 1.233 4.38 4.38 0 003.063-1.233l14.196-13.82a.95.95 0 000-1.368 1.013 1.013 0 00-1.406 0L20.62 41.707c-.913.889-2.4.889-3.314 0L2.674 27.461a2.237 2.237 0 010-3.227L25.221 2.286a1.24 1.24 0 01.87-.35l15.103.008c1.293 0 2.344 1.024 2.343 2.282l-.005 8.11h-4.477c-.386 0-.735-.154-.987-.402a3.653 3.653 0 001.145-.754 3.504 3.504 0 000-5.044c-1.43-1.391-3.753-1.391-5.182 0a3.504 3.504 0 000 5.044c.53.516 1.182.84 1.867.973.486 1.237 1.718 2.117 3.157 2.117h4.476l-.003 4.64c0 .32-.128.62-.36.846l-2.73 2.657a.95.95 0 000 1.368 1.014 1.014 0 001.406 0l2.73-2.656a3.073 3.073 0 00.942-2.215l.003-4.64h1.994c1.863 0 3.38-1.475 3.38-3.29 0-1.814-1.517-3.29-3.38-3.29zm-12.076-.186a1.694 1.694 0 011.185-.477c.43 0 .858.16 1.185.477.103.101.189.213.26.33a3.347 3.347 0 00-2.262 2.247 1.662 1.662 0 01-.368-.269 1.603 1.603 0 010-2.308zm12.076 4.831H45.52l.002-2.71h1.99c.768 0 1.392.608 1.392 1.355s-.624 1.355-1.391 1.355z" fill="#00A550" fill-rule="nonzero"/><path d="M15.119 25.012c.132.504.565.834 1.035.834.096 0 .193-.013.29-.042l11.042-3.258c.572-.168.907-.797.748-1.404-.16-.606-.752-.961-1.325-.792l-11.043 3.257c-.571.17-.906.798-.747 1.405z" fill="red"/><path d="M19.677 26.656a2.724 2.724 0 00-.828 1.96c0 .74.294 1.435.828 1.959a2.85 2.85 0 002 .81 2.85 2.85 0 002-.81 2.734 2.734 0 000-3.919 2.873 2.873 0 00-4 0zm2.643 2.59a.924.924 0 01-1.286 0 .875.875 0 010-1.261.918.918 0 01.643-.26c.233 0 .466.086.643.26a.88.88 0 010 1.26zm3.242-9.748a2.732 2.732 0 000-3.917 2.841 2.841 0 00-2-.812 2.84 2.84 0 00-2 .812 2.732 2.732 0 000 3.917c.55.54 1.275.81 2 .81.724 0 1.448-.27 2-.81zm-2.644-2.59c.172-.167.4-.26.643-.26s.472.093.644.26a.879.879 0 010 1.261.925.925 0 01-1.287 0 .88.88 0 010-1.26z" fill="red" fill-rule="nonzero"/><path d="M10.242 21.75a1.024 1.024 0 00-1.426 0L5.95 24.557a.978.978 0 00-.295.698.98.98 0 00.295.699L18.74 38.48c.196.193.455.29.713.29.258 0 .516-.097.713-.29l19.122-18.729a.974.974 0 000-1.397L26.498 5.828a1.02 1.02 0 00-1.426 0l-10.55 10.334a.974.974 0 000 1.397 1.024 1.024 0 001.426 0l9.837-9.635 11.363 11.129-17.695 17.332L8.09 25.255l2.152-2.108a.974.974 0 000-1.397zM38.64 24a.96.96 0 00-.666.27.92.92 0 00-.276.653c0 .243.101.481.276.653a.96.96 0 001.333 0 .92.92 0 00.276-.653.92.92 0 00-.276-.653.96.96 0 00-.666-.27z" fill="#00A550"/><path d="M12.918 20.037a.915.915 0 00.276-.652.92.92 0 00-.276-.653.958.958 0 00-1.332 0 .92.92 0 00-.277.653c0 .243.1.48.277.652a.956.956 0 001.332 0z" fill="#00A550"/></g></svg>