<svg width="25" height="22" xmlns="http://www.w3.org/2000/svg"><g fill="none" fill-rule="evenodd"><path d="M24.483 20.58L22.73 10.019A1.212 1.212 0 0021.531 9h-4.578v.812h4.578c.197 0 .366.144.399.34l1.754 10.563a.408.408 0 01-.4.472H1.715a.405.405 0 01-.399-.472L3.07 10.152a.405.405 0 01.399-.34h4.577V9H3.47a1.212 1.212 0 00-1.198 1.018L.517 20.581A1.214 1.214 0 001.715 22l21.57-.001a1.214 1.214 0 001.198-1.42z" fill="#00A550"/><path d="M12.5 14c.11 0 .213-.05.286-.137.193-.23 4.714-5.656 4.714-8.51C17.5 2.397 15.262 0 12.5 0s-5 2.397-5 5.353c0 2.854 4.521 8.28 4.714 8.51A.374.374 0 0012.5 14zm0-13.176c2.335.002 4.228 2.029 4.23 4.529 0 1.963-2.827 5.872-4.23 7.612-1.403-1.74-4.23-5.648-4.23-7.612.002-2.5 1.895-4.527 4.23-4.53z" fill="#00A550" fill-rule="nonzero"/><path d="M15.5 5a3 3 0 10-6 0 3 3 0 006 0zm-5.143 0a2.143 2.143 0 114.286 0 2.143 2.143 0 01-4.286 0z" fill="red" fill-rule="nonzero"/><path fill="#F26F21" d="M12.5 15h2v1h-2zm-3 0h1v1h-1zm6 0h1v1h-1z"/></g></svg>