<svg width="80" height="27" xmlns="http://www.w3.org/2000/svg" xmlns:xlink="http://www.w3.org/1999/xlink"><defs><path d="M3.11 3.942l-.762-2.218-.81 2.218H3.11zM1.993.98h.769L4.583 6h-.745L3.33 4.496H1.343L.8 6H.103L1.993.979zm3.305 1.36l.977 2.98 1.022-2.98h.674L6.59 6h-.656l-1.35-3.66h.714zm3.67 2.687c0 .178.066.318.196.42.13.103.283.154.461.154.216 0 .426-.05.629-.15.342-.167.513-.439.513-.817v-.496a1.053 1.053 0 01-.29.12 2.476 2.476 0 01-.35.068l-.372.048c-.223.03-.39.076-.503.14-.189.107-.283.278-.283.513zm1.491-1.244c.141-.018.236-.078.284-.178a.54.54 0 00.04-.236c0-.21-.074-.362-.223-.456-.15-.095-.363-.142-.641-.142-.321 0-.55.087-.684.26-.075.095-.124.238-.147.427h-.574c.012-.451.158-.765.44-.942.28-.176.607-.265.979-.265.43 0 .78.083 1.049.247.267.164.4.419.4.765v2.11a.27.27 0 00.04.153c.025.039.08.058.165.058a1.478 1.478 0 00.202-.02v.454a1.713 1.713 0 01-.22.051c-.05.007-.118.01-.204.01-.212 0-.366-.075-.462-.225a.87.87 0 01-.106-.338 1.565 1.565 0 01-.54.427 1.67 1.67 0 01-.776.181c-.34 0-.616-.103-.832-.31a1.027 1.027 0 01-.323-.773c0-.34.106-.603.318-.79.212-.187.49-.302.834-.345l.981-.123zm1.931-1.426h.626V6h-.626V2.356zm0-1.377h.626v.697h-.626V.98zm1.572 0h.616V6h-.616V.979zm2.01 4.047c0 .178.065.318.195.42a.72.72 0 00.461.154c.217 0 .427-.05.63-.15.341-.167.512-.439.512-.817v-.496a1.053 1.053 0 01-.29.12 2.476 2.476 0 01-.35.068l-.372.048c-.223.03-.39.076-.502.14-.19.107-.284.278-.284.513zm1.49-1.244c.142-.018.236-.078.284-.178a.54.54 0 00.041-.236c0-.21-.075-.362-.224-.456-.149-.095-.363-.142-.64-.142-.322 0-.55.087-.684.26-.075.095-.124.238-.147.427h-.574c.011-.451.157-.765.439-.942.281-.176.608-.265.979-.265.43 0 .78.083 1.05.247.266.164.4.419.4.765v2.11a.27.27 0 00.039.153c.026.039.081.058.165.058a1.478 1.478 0 00.202-.02v.454a1.713 1.713 0 01-.219.051 1.57 1.57 0 01-.205.01c-.212 0-.366-.075-.461-.225a.87.87 0 01-.106-.338 1.565 1.565 0 01-.54.427 1.67 1.67 0 01-.776.181c-.34 0-.617-.103-.832-.31a1.027 1.027 0 01-.323-.773c0-.34.106-.603.317-.79.212-.187.49-.302.834-.345l.981-.123zm1.884-2.82h.598v1.822c.134-.176.295-.31.482-.402a1.36 1.36 0 01.608-.138c.456 0 .826.156 1.11.47.283.313.425.775.425 1.386 0 .578-.14 1.06-.42 1.442-.28.383-.67.574-1.166.574-.278 0-.513-.067-.704-.201a1.7 1.7 0 01-.366-.383V6h-.567V.962zm1.6 4.61c.332 0 .58-.131.746-.396.165-.264.248-.613.248-1.046 0-.385-.083-.704-.248-.957-.165-.253-.408-.38-.73-.38-.28 0-.525.105-.736.312-.21.207-.316.55-.316 1.025 0 .344.043.624.13.838.161.403.463.605.905.605zM23.303.98h.615V6h-.615V.979zm3.062 1.278c.26 0 .512.061.756.183.243.122.43.28.557.474.123.184.205.4.246.646.036.168.054.437.054.806h-2.683c.012.372.1.67.264.894.164.224.418.337.762.337.321 0 .577-.106.769-.318a1.06 1.06 0 00.232-.427h.605a1.274 1.274 0 01-.159.449c-.09.165-.19.3-.302.405a1.434 1.434 0 01-.694.37 2.108 2.108 0 01-.502.054c-.456 0-.842-.166-1.16-.497-.316-.332-.474-.796-.474-1.393 0-.588.16-1.066.478-1.432.32-.367.736-.55 1.251-.55zm.981 1.62c-.025-.266-.083-.48-.174-.639-.169-.296-.45-.444-.844-.444a.936.936 0 00-.711.306 1.156 1.156 0 00-.305.777h2.034zm4.785 1.727c.408 0 .688-.155.84-.464a2.31 2.31 0 00.227-1.03c0-.342-.055-.62-.164-.834-.174-.337-.472-.506-.896-.506-.376 0-.65.144-.82.43-.171.288-.256.634-.256 1.04 0 .39.085.714.256.974.17.26.442.39.813.39zm.024-3.37c.472 0 .87.157 1.197.471.325.315.488.777.488 1.388 0 .59-.143 1.078-.43 1.463-.287.385-.733.577-1.337.577-.503 0-.903-.17-1.2-.51-.296-.341-.444-.799-.444-1.373 0-.615.156-1.105.468-1.47.313-.364.732-.547 1.258-.547zm2.417.105h.584v.52a1.64 1.64 0 01.55-.462c.194-.093.41-.14.647-.14.519 0 .87.181 1.052.544.1.198.15.482.15.85V6h-.625V3.693a1.25 1.25 0 00-.099-.54c-.11-.228-.308-.342-.595-.342-.146 0-.265.015-.359.044a.924.924 0 00-.444.301.906.906 0 00-.2.375 2.52 2.52 0 00-.046.552V6h-.615V2.34zm5.96-1.022h.623V2.34h.584v.503h-.584V5.23c0 .128.043.213.13.256a.552.552 0 00.239.038 2.884 2.884 0 00.215-.01V6c-.07.02-.144.035-.22.044a1.94 1.94 0 01-.248.014c-.287 0-.482-.073-.584-.22-.103-.147-.154-.338-.154-.573V2.842h-.496v-.503h.496V1.317zm1.822-.355h.616v1.873c.146-.185.277-.314.393-.39.198-.13.445-.195.741-.195.531 0 .891.186 1.08.558.103.202.154.484.154.844V6h-.632V3.693c0-.269-.034-.466-.103-.591-.111-.201-.32-.301-.628-.301-.256 0-.487.088-.694.263-.208.175-.311.507-.311.995V6h-.616V.962zm5.418 1.295c.26 0 .512.061.755.183.244.122.43.28.557.474.123.184.206.4.247.646.036.168.054.437.054.806h-2.683c.012.372.1.67.263.894.164.224.418.337.763.337.32 0 .577-.106.769-.318.109-.123.186-.266.232-.427h.605a1.274 1.274 0 01-.159.449c-.09.165-.19.3-.302.405a1.434 1.434 0 01-.694.37 2.108 2.108 0 01-.503.054c-.455 0-.842-.166-1.158-.497-.317-.332-.476-.796-.476-1.393 0-.588.16-1.066.479-1.432.319-.367.736-.55 1.25-.55zm.98 1.62c-.024-.266-.082-.48-.173-.639-.169-.296-.45-.444-.845-.444a.936.936 0 00-.71.306 1.156 1.156 0 00-.305.777h2.034z" id="a"/><path d="M5.688 9.237L4.294 5.181 2.813 9.237h2.875zM3.644 3.82H5.05L8.381 13H7.02l-.931-2.75H2.456L1.463 13H.188l3.456-9.181zm8.544 8.425c.525 0 .961-.22 1.309-.66.348-.44.522-1.096.522-1.972 0-.533-.077-.991-.231-1.375-.292-.737-.825-1.106-1.6-1.106-.78 0-1.313.39-1.6 1.169-.155.417-.232.946-.232 1.587 0 .517.077.957.232 1.32.291.69.824 1.037 1.6 1.037zM9.275 6.337h1.094v.888c.225-.304.47-.54.737-.706.38-.25.825-.375 1.338-.375.758 0 1.402.29 1.931.872.53.58.794 1.411.794 2.49 0 1.459-.381 2.5-1.144 3.125a2.584 2.584 0 01-1.687.594c-.505 0-.928-.11-1.27-.331-.2-.125-.422-.34-.668-.644v3.419H9.275V6.337zm10.031 5.907c.525 0 .962-.22 1.31-.66.348-.44.522-1.096.522-1.972 0-.533-.078-.991-.232-1.375-.291-.737-.825-1.106-1.6-1.106-.779 0-1.312.39-1.6 1.169-.154.417-.231.946-.231 1.587 0 .517.077.957.231 1.32.292.69.825 1.037 1.6 1.037zm-2.912-5.907h1.094v.888c.225-.304.47-.54.737-.706.38-.25.825-.375 1.338-.375.758 0 1.402.29 1.93.872.53.58.795 1.411.795 2.49 0 1.459-.382 2.5-1.144 3.125a2.584 2.584 0 01-1.688.594c-.504 0-.927-.11-1.268-.331-.2-.125-.423-.34-.67-.644v3.419h-1.124V6.337zm11.725 3.7c.029.521.152.944.369 1.27.412.608 1.14.912 2.18.912a3.86 3.86 0 001.276-.2c.741-.259 1.112-.721 1.112-1.388 0-.5-.156-.856-.468-1.069-.317-.208-.813-.39-1.488-.543l-1.244-.282c-.812-.183-1.387-.385-1.725-.606-.583-.383-.875-.956-.875-1.719 0-.825.286-1.502.857-2.03.57-.53 1.379-.795 2.425-.795.962 0 1.78.233 2.453.697C33.664 4.75 34 5.492 34 6.512h-1.169c-.062-.491-.196-.868-.4-1.13-.379-.48-1.023-.72-1.931-.72-.733 0-1.26.155-1.581.463-.321.308-.481.667-.481 1.075 0 .45.187.78.562.987.246.134.802.3 1.669.5l1.287.294c.621.142 1.1.336 1.438.581.583.43.875 1.053.875 1.87 0 1.016-.37 1.743-1.11 2.18-.74.438-1.599.657-2.578.657-1.141 0-2.035-.292-2.681-.875-.646-.58-.962-1.365-.95-2.357h1.169zm7.8-5.6h1.137v1.87h1.069v.918h-1.069v4.369c0 .233.08.39.238.469.087.045.233.068.437.068.054 0 .113 0 .175-.003.063-.002.136-.007.219-.015V13c-.13.038-.264.065-.403.081a3.76 3.76 0 01-.453.025c-.525 0-.881-.134-1.069-.403-.188-.269-.281-.618-.281-1.047V7.225h-.906v-.919h.906V4.437zm5.987 7.838c.746 0 1.258-.282 1.535-.847a4.22 4.22 0 00.415-1.884c0-.625-.1-1.134-.3-1.525-.316-.617-.862-.925-1.637-.925-.688 0-1.188.262-1.5.787-.313.525-.469 1.159-.469 1.9 0 .713.156 1.306.469 1.781.312.476.808.713 1.487.713zm.044-6.163c.863 0 1.592.288 2.188.863.595.575.893 1.42.893 2.537 0 1.08-.262 1.971-.787 2.675-.525.705-1.34 1.057-2.444 1.057-.92 0-1.652-.312-2.194-.935-.541-.623-.812-1.459-.812-2.509 0-1.125.285-2.02.856-2.688.57-.666 1.337-1 2.3-1zm4.45.194h1.069v1.156c.087-.225.302-.498.644-.821a1.67 1.67 0 011.18-.485c.022 0 .057.002.107.006l.256.025v1.188a1.68 1.68 0 00-.368-.031c-.567 0-1.003.182-1.307.547a1.909 1.909 0 00-.456 1.259V13H46.4V6.306zm7.019-.15c.475 0 .935.112 1.381.335.446.223.785.511 1.019.865.225.338.375.731.45 1.181.066.309.1.8.1 1.475h-4.906c.02.68.18 1.224.48 1.635.3.41.765.615 1.395.615.587 0 1.056-.193 1.406-.58.2-.226.341-.486.425-.782h1.106c-.03.246-.126.52-.29.822a2.923 2.923 0 01-.554.74 2.622 2.622 0 01-1.268.675c-.271.067-.578.1-.92.1a2.818 2.818 0 01-2.118-.909c-.58-.606-.869-1.455-.869-2.547 0-1.075.292-1.948.875-2.619.584-.67 1.346-1.006 2.288-1.006zm1.794 2.963c-.046-.488-.153-.877-.32-1.169-.308-.542-.822-.813-1.543-.813-.517 0-.95.187-1.3.56-.35.373-.535.847-.556 1.422h3.719z" id="b"/></defs><g fill="none"><path d="M3.006 1A2 2 0 001 3.004v20.992C1 25.103 1.903 26 3.006 26h73.988A2 2 0 0079 23.996V3.004A2.008 2.008 0 0076.994 1H3.006zm0-1h73.988A3.008 3.008 0 0180 3.004v20.992A3 3 0 0176.994 27H3.006A3.008 3.008 0 010 23.996V3.004A3 3 0 013.006 0z" fill="#FFF"/><g transform="translate(20 4)"><use fill="#000" xlink:href="#a"/><use fill="#FFF" xlink:href="#a"/></g><g transform="translate(20 8)"><use fill="#000" xlink:href="#b"/><use fill="#FFF" xlink:href="#b"/></g><path d="M7 6.458C7 5.65 7.577 5 8.29 5h6.42c.713 0 1.29.653 1.29 1.458v15.084C16 22.35 15.423 23 14.71 23H8.29C7.576 23 7 22.347 7 21.542V6.458zm.844 14.181h7.312V7.361H7.844v13.278zm3.656 1.77c.31 0 .563-.263.563-.59a.577.577 0 00-.563-.59.577.577 0 00-.563.59c0 .327.252.59.563.59zM10.375 6.18c0 .163.097.295.224.295h1.802c.124 0 .224-.136.224-.295 0-.163-.097-.295-.224-.295h-1.802c-.124 0-.224.137-.224.295z" fill="#FFF"/></g></svg>