<?xml version="1.0" encoding="UTF-8"?>
<svg width="99px" height="34px" viewBox="0 0 99 34" version="1.1" xmlns="http://www.w3.org/2000/svg" xmlns:xlink="http://www.w3.org/1999/xlink">
    <!-- Generator: Sketch 57.1 (83088) - https://sketch.com -->
    <title>desktop</title>
    <desc>Created with Sketch.</desc>
    <g id="Page-1" stroke="none" stroke-width="1" fill="none" fill-rule="evenodd">
        <g id="Footer-Desktop" transform="translate(-1268.000000, -183.000000)">
            <g id="desktop" transform="translate(1268.000000, 183.000000)">
                <g id="Group-7" stroke="#FFFFFF" stroke-width="0.75">
                    <g id="Group-5">
                        <rect id="Rectangle" x="0.375" y="0.375" width="98.25" height="33.25" rx="2"></rect>
                    </g>
                </g>
                <g id="Group-9" transform="translate(9.000000, 9.000000)">
                    <path d="M26.705202,13.3664551 L29.1972908,13.3664551 L28.3049079,10.7886963 C28.1822886,10.4326172 28.0615924,10.0395508 27.9423667,9.60876465 C27.8347921,9.98962402 27.7179418,10.3789062 27.5914766,10.7764893 L26.705202,13.3664551 Z M29.6229515,14.5899658 L26.2848578,14.5899658 L25.4676979,17 L24,17 L27.2690921,8 L28.6562504,8 L32,17 L30.4576446,17 L29.6229515,14.5899658 Z" id="Fill-6" fill="#FFFFFF"></path>
                    <path d="M36.0048285,14.8513066 C36.3114188,14.4585188 36.4647738,13.8846286 36.4647738,13.1297501 C36.4647738,12.4290768 36.3379956,11.9211457 36.0839602,11.6055004 C35.8299248,11.2899692 35.4922085,11.1324889 35.0698537,11.1324889 C34.7772701,11.1324889 34.5071929,11.1981057 34.2596221,11.3296816 C34.012171,11.4612576 33.7762126,11.6374529 33.5531834,11.8581536 L33.5531834,15.2143102 C33.7030667,15.2840351 33.8778507,15.3391533 34.0768172,15.3797786 C34.2757836,15.420404 34.4725952,15.4407166 34.6679702,15.4407166 C35.2527784,15.4407166 35.6981185,15.2440945 36.0048285,14.8513066 L36.0048285,14.8513066 Z M32.0486043,11.6492069 C32.0486043,11.1845258 32.0320836,10.6737419 32,10.1160561 L33.4129971,10.1160561 C33.465552,10.3756704 33.5020651,10.6407623 33.5226561,10.9117882 C34.1073445,10.3040055 34.7772701,10 35.532792,10 C35.9711886,10 36.3776213,10.1055575 36.7508929,10.3164441 C37.1246433,10.5275591 37.4263253,10.8604359 37.6558192,11.3150747 C37.8851932,11.7700559 38,12.3479402 38,13.0483853 C38,13.779984 37.8686726,14.4052265 37.6066163,14.9238845 C37.3450388,15.4426566 36.9783515,15.8354445 36.5073924,16.1025904 C36.0364333,16.3696223 35.4922085,16.5033664 34.8749576,16.5033664 C34.4280612,16.5033664 33.9876294,16.4314732 33.5531834,16.2884857 L33.5531834,18.8780098 L32.0486043,19 L32.0486043,11.6492069 Z" id="Fill-8" fill="#FFFFFF"></path>
                    <path d="M43.0049084,14.8513066 C43.3116246,14.4585188 43.4648629,13.8846286 43.4648629,13.1297501 C43.4648629,12.4290768 43.3380821,11.9211457 43.0840417,11.6055004 C42.8300012,11.2899692 42.4922782,11.1324889 42.069915,11.1324889 C41.7773255,11.1324889 41.5072429,11.1981057 41.2596672,11.3296816 C41.0122112,11.4612576 40.7762481,11.6374529 40.5532144,11.8581536 L40.5532144,15.2143102 C40.702981,15.2840351 40.8778882,15.3391533 41.0768586,15.3797786 C41.2757093,15.420404 41.4726446,15.4407166 41.6680235,15.4407166 C42.2528433,15.4407166 42.6981923,15.2440945 43.0049084,14.8513066 L43.0049084,14.8513066 Z M39.0486053,11.6492069 C39.0486053,11.1845258 39.0320843,10.6737419 39,10.1160561 L40.4129055,10.1160561 C40.4655812,10.3756704 40.5020951,10.6407623 40.5226865,10.9117882 C41.1073866,10.3040055 41.7773255,10 42.5329822,10 C42.9713875,10 43.3775889,10.1055575 43.750868,10.3164441 C44.1247456,10.5275591 44.4263139,10.8604359 44.6558123,11.3150747 C44.8853107,11.7700559 45,12.3479402 45,13.0483853 C45,13.779984 44.8687897,14.4052265 44.6067281,14.9238845 C44.3451455,15.4426566 43.9784509,15.8354445 43.5073626,16.1025904 C43.0365138,16.3696223 42.4922782,16.5033664 41.875015,16.5033664 C41.4281097,16.5033664 40.9876691,16.4314732 40.5532144,16.2884857 L40.5532144,18.8780098 L39.0486053,19 L39.0486053,11.6492069 Z" id="Fill-10" fill="#FFFFFF"></path>
                    <path d="M47.871127,16.4647145 C47.2697566,16.1079764 46.8076241,15.5968221 46.4843973,14.9316084 C46.1612811,14.2661568 46,13.4798114 46,12.572572 C46,11.5887784 46.1858721,10.7529817 46.5578378,10.0654198 C46.930025,9.37809565 47.4362439,8.86182985 48.0769377,8.51709791 C48.7171883,8.17236597 49.4357534,8 50.2326328,8 C50.7024085,8 51.1502516,8.05539486 51.5767161,8.16642232 C52.0032915,8.2773309 52.4005127,8.42936958 52.7691553,8.62289496 L52.4140266,9.77215992 C51.6735291,9.39331141 50.967038,9.20370884 50.2948856,9.20370884 C49.7274108,9.20370884 49.2303858,9.33351825 48.8039213,9.59373143 C48.377346,9.85370686 48.0459221,10.2357649 47.808985,10.7400246 C47.5726018,11.2440464 47.4538564,11.8527955 47.4538564,12.5666284 C47.4538564,13.1915442 47.5452416,13.7459682 47.7273475,14.2299005 C47.909675,14.713714 48.1970124,15.0970797 48.5896921,15.3791655 C48.9823717,15.6614891 49.4775137,15.8024726 50.0746748,15.8024726 C50.3453967,15.8024726 50.6161186,15.7783413 50.8863974,15.7298411 C51.1571193,15.6815786 51.4106719,15.610968 51.6471659,15.518247 L51.6471659,13.7459682 L49.7594234,13.7459682 L49.7594234,12.5848159 L53,12.5848159 L53,16.2743987 C52.5341013,16.5082221 52.0444979,16.6876015 51.5317435,16.812656 C51.0189891,16.9375916 50.509004,17 50.0013451,17 C49.1822008,17 48.4724974,16.8216904 47.871127,16.4647145" id="Fill-12" fill="#FFFFFF"></path>
                    <path d="M56.9786322,15.6237772 C57.2516883,15.4697297 57.4752974,15.2778158 57.6489368,15.0482814 L57.6489368,13.7972145 C57.2905768,13.7513568 56.9982856,13.7283664 56.7713312,13.7283664 C56.2287733,13.7283664 55.8537916,13.8316385 55.6463861,14.0379367 C55.4389805,14.2446037 55.3352778,14.5229464 55.3352778,14.8730878 C55.3352778,15.2067548 55.4105459,15.453993 55.5610822,15.6145564 C55.7120366,15.7749969 55.9168287,15.8552786 56.1753539,15.8552786 C56.4378515,15.8552786 56.7056807,15.7781934 56.9786322,15.6237772 L56.9786322,15.6237772 Z M57.765707,16.8749671 C57.7198143,16.6122381 57.6897071,16.3141016 57.6755943,15.9803116 C57.4734157,16.2640638 57.2100817,16.5049089 56.8853833,16.702847 C56.5613122,16.900908 56.1951118,17 55.7873048,17 C55.4573794,17 55.1568295,16.9237754 54.8855506,16.771695 C54.6142717,16.6194917 54.3990257,16.3902032 54.23929,16.0835836 C54.0796588,15.7772099 54,15.4028488 54,14.9607461 C54,14.3060751 54.2004014,13.7838137 54.6012043,13.3937159 C55.0019026,13.003741 55.6700119,12.8087535 56.606264,12.8087535 C56.9577244,12.8087535 57.3050032,12.8380139 57.6489368,12.8964118 L57.6489368,12.7649859 C57.6489368,12.1685898 57.5408434,11.7484939 57.324343,11.5045752 C57.1081561,11.2606565 56.7978841,11.1384513 56.3936315,11.1384513 C56.1136758,11.1384513 55.8139622,11.1866449 55.4945953,11.2825404 C55.1756466,11.3785588 54.8951682,11.4930186 54.6541011,11.6265346 L54.4466955,10.5005006 C54.6808631,10.3754676 54.9892534,10.260639 55.3724937,10.1565063 C55.7553158,10.0522507 56.1595685,10 56.5852516,10 C57.0813941,10 57.5036275,10.0887648 57.8511154,10.2660484 C58.1984988,10.4433321 58.4697777,10.7476158 58.6648477,11.1791454 C58.8600222,11.6107979 58.9576617,12.1917031 58.9576617,12.9213692 L58.9576617,15.6049669 C58.9576617,15.8844161 58.9715654,16.3078315 59,16.8749671 L57.765707,16.8749671 Z" id="Fill-14" fill="#FFFFFF"></path>
                    <path d="M60,15.4045924 L60,8.11428678 L61.6844797,8 L61.6844797,15.1532065 C61.6844797,15.4161672 61.7380536,15.6019254 61.8456051,15.7105933 C61.9526181,15.8191489 62.1228968,15.8735391 62.3560372,15.8735391 C62.4607619,15.8735391 62.6096379,15.8526371 62.8011845,15.8107207 L63,16.8228948 C62.8399515,16.8762736 62.6445013,16.919089 62.414053,16.9515658 C62.1837394,16.9837054 61.9656751,17 61.7599946,17 C60.5864854,17 60,16.4682349 60,15.4045924" id="Fill-16" fill="#FFFFFF"></path>
                    <path d="M64,15.4045924 L64,8.11428678 L65.6846143,8 L65.6846143,15.1532065 C65.6846143,15.4161672 65.7380536,15.6019254 65.8456051,15.7105933 C65.9527527,15.8191489 66.1228968,15.8735391 66.3560372,15.8735391 C66.4607619,15.8735391 66.6096379,15.8526371 66.8011845,15.8107207 L67,16.8228948 C66.8400861,16.8762736 66.6445013,16.919089 66.4141876,16.9515658 C66.1837394,16.9837054 65.9656751,17 65.7599946,17 C64.5864854,17 64,16.4682349 64,15.4045924" id="Fill-18" fill="#FFFFFF"></path>
                    <path d="M70.485769,12.7149958 C70.4568747,12.1771111 70.3203062,11.7733596 70.0774217,11.5044787 C69.8346607,11.235352 69.5100327,11.101096 69.1039081,11.101096 C68.710008,11.101096 68.3824165,11.2364585 68.1203927,11.5075523 C67.8588628,11.7787691 67.6878434,12.1811683 67.608199,12.7149958 L70.485769,12.7149958 Z M72,13.6970809 L67.5642403,13.6970809 C67.6356115,15.1108262 68.3120331,15.8177603 69.5936284,15.8177603 C69.9120825,15.8177603 70.2375749,15.7791555 70.5709699,15.701946 C70.9038711,15.6247365 71.2231895,15.5217086 71.5290486,15.3922474 L71.8681237,16.449575 C71.1100821,16.816566 70.2578255,17 69.3109835,17 C68.5906032,17 67.9833302,16.8646375 67.4887942,16.5934207 C66.9948756,16.3223268 66.6232018,15.932468 66.373526,15.4235984 C66.1244675,14.9149747 66,14.3018477 66,13.5843403 C66,12.8379408 66.1316293,12.1957988 66.3957523,11.6577912 C66.6598753,11.1195377 67.0273507,10.7090242 67.4986726,10.4253899 C67.969377,10.1416327 68.513058,10 69.1286041,10 C69.7694635,10 70.3048713,10.1491324 70.7343335,10.4473971 C71.1631784,10.7455389 71.4815089,11.1427743 71.6893252,11.6391036 C71.8966475,12.1353098 72,12.6836448 72,13.2841085 L72,13.6970809 Z" id="Fill-20" fill="#FFFFFF"></path>
                    <path d="M73.0486548,11.8536481 C73.0486548,11.475608 73.032117,10.9004113 73,10.1273069 L74.4084726,10.1273069 C74.4330397,10.3185801 74.4560489,10.5467811 74.4786985,10.8121602 C74.5006292,11.0776645 74.5162083,11.2929721 74.5242375,11.4585837 C74.6988435,11.1571531 74.8708131,10.9035408 75.0393073,10.6976216 C75.2079214,10.4917024 75.4055366,10.3238376 75.6311942,10.1944027 C75.8564923,10.0647175 76.1136677,10 76.4020013,10 C76.6337707,10 76.8329439,10.0255365 77,10.0764843 L76.8108934,11.4394313 C76.6644496,11.3928648 76.5018276,11.3695815 76.3227875,11.3695815 C75.9692612,11.3695815 75.6603152,11.4640916 75.3959494,11.6529864 C75.1317035,11.8418813 74.849242,12.1530758 74.5489244,12.5860694 L74.5489244,17 L73.0486548,17 L73.0486548,11.8536481 Z" id="Fill-22" fill="#FFFFFF"></path>
                    <path d="M77.4899836,18.9441618 C77.2915667,18.9069364 77.1286356,18.8647399 77,18.8175723 L77.2477506,17.7589595 C77.3390613,17.7862428 77.455147,17.8127168 77.5946014,17.8383815 C77.7340558,17.8636994 77.8662616,17.8765318 77.990786,17.8765318 C78.5924196,17.8765318 79.0438883,17.462659 79.3449756,16.6352601 L79.4329324,16.4001156 L77.242233,10 L78.7007158,10 L79.8018536,13.5766474 C79.9816621,14.1884393 80.0972069,14.6571098 80.1487044,14.9824277 C80.2514831,14.5234682 80.3724373,14.0647399 80.5118917,13.605896 L81.629474,10 L83,10 L80.8148182,16.4293642 C80.6092609,17.037341 80.3873672,17.5275145 80.1487044,17.9 C79.9101498,18.2726012 79.6285364,18.5491329 79.3038641,18.7293642 C78.9787591,18.9098266 78.5871184,19 78.128293,19 C77.9006654,19 77.6882923,18.9813873 77.4899836,18.9441618" id="Fill-24" fill="#FFFFFF"></path>
                    <g id="Group-8" transform="translate(24.000000, 0.000000)" fill="#FFFFFF">
                        <polygon id="Fill-26" points="0 0 2.97518817 0 2.89169438 0.711148078 0.871958691 0.711148078 0.871958691 2.08886752 2.77629967 2.08886752 2.77629967 2.75556884 0.871958691 2.75556884 0.871958691 4.28170405 3 4.28170405 2.92635218 5 0 5"></polygon>
                        <polygon id="Fill-28" points="5.54620945 2.44821043 4.11756975 0 5.01917677 0 5.98721548 1.79905388 7.00639226 0 7.88302766 0 6.46681403 2.41714969 8 5 7.0859669 5 5.99079993 3.0318665 4.87615748 5 4 5"></polygon>
                        <path d="M10.9653504,2.2322148 C11.1327775,2.06547449 11.216196,1.82998466 11.216196,1.52613521 C11.216196,1.21773711 11.1312436,0.995633301 10.9608668,0.85956385 C10.790608,0.723884282 10.5401164,0.655914537 10.2098639,0.655914537 L9.78368599,0.655914537 L9.78368599,2.43066566 C9.98013844,2.46523536 10.130339,2.48265017 10.2349957,2.48265017 C10.5549831,2.48265017 10.7983953,2.39921503 10.9653504,2.2322148 L10.9653504,2.2322148 Z M9,0 L10.2227248,0 C10.7974514,0 11.2369622,0.12879162 11.5422009,0.386634783 C11.8473216,0.644477946 12,1.01733683 12,1.50547137 C12,1.83700257 11.9318021,2.12642632 11.7949343,2.37387259 C11.6577126,2.62144881 11.4670416,2.81119226 11.2226854,2.9436228 C10.9782113,3.07605334 10.6968064,3.14220362 10.3791788,3.14220362 C10.2058523,3.14220362 10.007394,3.11907052 9.78368599,3.07306423 L9.78368599,5 L9,5 L9,0 Z" id="Fill-30"></path>
                        <polygon id="Fill-32" points="13 0 13.8832838 0 13.8832838 4.26104021 16 4.26104021 15.9253956 5 13 5"></polygon>
                        <path d="M19.3714635,4.0977843 C19.6137789,3.93982699 19.7946696,3.72255666 19.9143958,3.44597329 C20.0342521,3.16913699 20.0942453,2.85284298 20.0942453,2.49671186 C20.0942453,2.14703055 20.0414096,1.83579522 19.9352177,1.5625 C19.8290258,1.28907831 19.6595872,1.0713021 19.4270321,0.908791987 C19.1938263,0.746534804 18.8942505,0.665216512 18.5277843,0.665216512 C18.1775852,0.665216512 17.8802218,0.74754654 17.635694,0.912206597 C17.3916868,1.07686665 17.2080633,1.2975516 17.0859946,1.57413497 C16.9635356,1.8508448 16.9025012,2.15600971 16.9025012,2.48975617 C16.9025012,2.84146095 16.9602821,3.15649029 17.0757138,3.43408539 C17.1906249,3.71193343 17.3670909,3.9313537 17.6045912,4.09272562 C17.8420916,4.25397106 18.1362016,4.33465702 18.4864007,4.33465702 C18.8343874,4.33465702 19.1296687,4.25586807 19.3714635,4.0977843 M17.1307618,4.69432922 C16.7641654,4.49033792 16.4842404,4.20414306 16.2908566,3.8354917 C16.0969522,3.46709328 16,3.03862303 16,2.55046034 C16,2.03751012 16.103459,1.58867867 16.3099867,1.20472481 C16.5158637,0.820391542 16.8132271,0.523699919 17.202077,0.314144071 C17.5904063,0.10471469 18.0484891,0 18.5761953,0 C19.0811275,0 19.5157856,0.101300081 19.8796492,0.30402671 C20.2440332,0.506753339 20.5217459,0.791809996 20.7129174,1.15919668 C20.9046095,1.52670983 21,1.95227135 21,2.43600769 C21,2.95819 20.8958903,3.4118272 20.6872804,3.79691926 C20.4786705,4.1821378 20.1813071,4.47920882 19.7951901,4.6875 C19.4090732,4.89579118 18.9552849,5 18.4346061,5 C17.9318862,5 17.4972281,4.89806758 17.1307618,4.69432922" id="Fill-34"></path>
                        <path d="M23.067781,2.36529514 C23.2334906,2.36529514 23.3794094,2.3244873 23.5068704,2.2426117 C23.6339212,2.16099602 23.7325677,2.0459803 23.8038351,1.89743456 C23.8745898,1.74901879 23.9098646,1.57682011 23.9098646,1.38135836 C23.9098646,1.13027318 23.8472108,0.946637902 23.7219032,0.830322564 C23.596493,0.714137187 23.4141715,0.656044499 23.1742207,0.656044499 L22.6810911,0.656044499 L22.6810911,2.36529514 L23.067781,2.36529514 Z M22,0 L23.2343109,0 C23.6845775,0 24.0257383,0.113976035 24.2574856,0.341928105 C24.4887203,0.569750214 24.6045939,0.895563122 24.6045939,1.31897694 C24.6045939,1.58357809 24.563064,1.81698854 24.4793888,2.01829855 C24.3956112,2.21973852 24.2921452,2.38374964 24.1685808,2.51020196 C24.0450164,2.6369142 23.9179655,2.73126608 23.7871206,2.79364749 L25,5 L24.2093929,5 L23.1824241,3.01796065 L22.6810911,3.01796065 L22.6810911,5 L22,5 L22,0 Z" id="Fill-36"></path>
                        <polygon id="Fill-38" points="26 0 28.9751882 0 28.8915631 0.711148078 26.8719587 0.711148078 26.8719587 2.08886752 28.7761684 2.08886752 28.7761684 2.75556884 26.8719587 2.75556884 26.8719587 4.28170405 29 4.28170405 28.9262209 5 26 5"></polygon>
                        <polygon id="Fill-40" points="31 5 32 5 32 0 31 0"></polygon>
                        <polygon id="Fill-42" points="34.5633434 0.72154498 33 0.72154498 33.0767719 0 37 0 36.9192978 0.72154498 35.4335124 0.72154498 35.4335124 5 34.5633434 5"></polygon>
                        <path d="M42.3713334,4.0977843 C42.6137789,3.93982699 42.7945394,3.72255666 42.9143958,3.44597329 C43.0342521,3.16913699 43.0942453,2.85284298 43.0942453,2.49671186 C43.0942453,2.14703055 43.0412795,1.83579522 42.9350876,1.5625 C42.8288957,1.28907831 42.6595872,1.0713021 42.4270321,0.908791987 C42.1938263,0.746534804 41.8942505,0.665216512 41.5277843,0.665216512 C41.177455,0.665216512 40.8800916,0.74754654 40.6355639,0.912206597 C40.3915567,1.07686665 40.2080633,1.2975516 40.0859946,1.57413497 C39.9634054,1.8508448 39.9023711,2.15600971 39.9023711,2.48975617 C39.9023711,2.84146095 39.9602821,3.15649029 40.0755837,3.43408539 C40.1904948,3.71193343 40.3670909,3.9313537 40.6045912,4.09272562 C40.8419614,4.25397106 41.1360714,4.33465702 41.4862705,4.33465702 C41.8343874,4.33465702 42.1296687,4.25586807 42.3713334,4.0977843 M40.1306317,4.69432922 C39.7641654,4.49033792 39.4841103,4.20414306 39.2907264,3.8354917 C39.0969522,3.46709328 39,3.03862303 39,2.55046034 C39,2.03751012 39.103459,1.58867867 39.3098566,1.20472481 C39.5157336,0.820391542 39.813097,0.523699919 40.2019469,0.314144071 C40.5902762,0.10471469 41.048359,0 41.5761953,0 C42.0811275,0 42.5156555,0.101300081 42.879519,0.30402671 C43.2439031,0.506753339 43.5217459,0.791809996 43.7129174,1.15919668 C43.9046095,1.52670983 44,1.95227135 44,2.43600769 C44,2.95819 43.8958903,3.4118272 43.6872804,3.79691926 C43.4786705,4.1821378 43.1813071,4.47920882 42.7951901,4.6875 C42.408943,4.89579118 41.9552849,5 41.4346061,5 C40.9317561,5 40.4972281,4.89806758 40.1306317,4.69432922" id="Fill-43"></path>
                        <path d="M45,0 L45.9364524,0 L48.2721803,3.87440543 C48.2526555,3.50609518 48.2429545,3.16637642 48.2429545,2.85563902 L48.2429545,0 L49,0 L49,5 L48.0928962,5 L45.7210659,1.06334312 C45.744643,1.51014998 45.7570455,1.90588205 45.7570455,2.25131911 L45.7570455,5 L45,5 L45,0 Z" id="Fill-44"></path>
                    </g>
                    <path d="M12.9356977,0 L5.06430226,0 C1.3562996,0 0,1.35630796 0,5.06422256 L0,12.9357774 C0,16.643692 1.3562996,18 5.06419135,18 L12.9332578,18 C16.6412604,18 18,16.643692 18,12.9357774 L18,5.06422256 C18,1.35630796 16.6437004,0 12.9356977,0" id="Fill-45" stroke="#FFFFFF"></path>
                    <path d="M7.85148051,10.8058225 L8.57429544,10.8058225 L8.21172197,9.74815434 L7.85148051,10.8058225 Z M7.67358076,11.3387658 L7.45914604,11.9541719 L6.97108772,11.9541719 L8.00905839,9.0001393 L8.43093178,9.0001393 L9.46479365,11.9541719 L8.96352056,11.9541719 L8.75197309,11.3387658 L7.67358076,11.3387658 Z M15.5282658,11.9520825 L16,11.9520825 L16,9.0001393 L15.5282658,9.0001393 L15.5282658,11.9520825 Z M13.6505461,10.6838 L14.5200562,10.6838 L14.5200562,10.1457027 L13.6505461,10.1457027 L13.6505461,9.54060454 L14.9128348,9.54060454 L14.9128348,9.00195013 L13.178923,9.00195013 L13.178923,11.9538933 L14.9583647,11.9538933 L14.9583647,11.4155175 L13.6505461,11.4155175 L13.6505461,10.6838 Z M11.7760468,11.0325951 L11.241126,9 L10.8509015,9 L10.3159807,11.0325951 L9.79538514,9.00139295 L9.28656075,9.00139295 L10.1078757,11.9557041 L10.5036527,11.9557041 L11.0394619,10.0151832 L11.575049,11.9557041 L11.9742685,11.9557041 L12.7934735,9.00139295 L12.2978639,9.00139295 L11.7760468,11.0325951 Z M6.25071587,10.6920184 C6.25071587,11.1724474 6.06060077,11.4291684 5.71512878,11.4291684 C5.36788,11.4291684 5.17654338,11.1652041 5.17654338,10.6714027 L5.17654338,9.00181084 L4.69836838,9.00181084 L4.69836838,10.6920184 C4.69836838,11.5233319 5.06671637,12 5.70868796,12 C6.35698932,12 6.72866877,11.5142778 6.72866877,10.6673631 L6.72866877,9 L6.25071587,9 L6.25071587,10.6920184 Z M3.55767782,9.0001393 L4.03563072,9.0001393 L4.03563072,11.9558434 L3.55767782,11.9558434 L3.55767782,10.755537 L2.478175,10.755537 L2.478175,11.9558434 L2,11.9558434 L2,9.0001393 L2.478175,9.0001393 L2.478175,10.1925059 L3.55767782,10.1925059 L3.55767782,9.0001393 Z" id="Fill-46" fill="#FFFFFF"></path>
                    <path d="M9,6 C7.34580788,6 6,4.65424193 6,3 L6.42387562,3 C6.42387562,4.42049156 7.57956691,5.57614007 9,5.57614007 C10.4205441,5.57614007 11.5761244,4.42049156 11.5761244,3 L12,3 C12,4.65424193 10.6541921,6 9,6" id="Fill-47" fill="#FFFFFF"></path>
                </g>
            </g>
        </g>
    </g>
</svg>